<svg width="90" height="90" viewBox="0 0 90 90" fill="none" xmlns="http://www.w3.org/2000/svg">
<g filter="url(#filter0_d_161_646)">
<path d="M57.3255 44.5489H54.3519V25.0396C54.3519 21.7881 51.8358 19.1559 48.7859 19.0011H24.6921C19.8886 18.9237 16 23.0268 16 28.0589V31.3879C16 32.9362 17.2962 34.2523 18.8211 34.2523H23.7771V54.9228C23.7771 57.6325 25.9883 59.8776 28.7331 59.8776H31.5543V63.8259C31.5543 64.6 31.9355 65.2194 32.6217 65.6065C32.9267 65.7613 33.2317 65.8387 33.5367 65.8387C33.9179 65.8387 34.2991 65.7613 34.6041 65.529L38.1114 63.2065L41.5425 65.4516L41.695 65.529C42.3812 65.8387 43.0674 65.8387 43.6774 65.4516C44.2874 65.0645 44.5924 64.4452 44.5924 63.7484V59.8776H57.3255C59.9179 59.8776 62.129 57.7099 62.129 55.0003V49.3488C62.129 46.7166 59.9179 44.5489 57.3255 44.5489ZM19.4311 28.0589C19.4311 24.9622 21.7947 22.4075 24.6921 22.4075H42C41.5425 23.3365 41.2375 24.4203 41.2375 25.5816V30.7685H19.4311V28.0589ZM38.0352 52.0584C35.2141 52.0584 33.0029 49.8133 33.0029 47.0262C33.0029 44.2392 35.2903 41.9941 38.0352 41.9941C40.7801 41.9941 43.0674 44.2392 43.0674 47.0262C43.0674 49.8133 40.8563 52.0584 38.0352 52.0584ZM39.3314 59.8776C38.5689 59.3356 37.5777 59.3356 36.739 59.8776L34.9091 61.1162V54.9228C35.9003 55.3099 36.9677 55.5422 38.0352 55.5422C39.1789 55.5422 40.2463 55.3099 41.1613 54.9228V61.1162L39.3314 59.8776ZM44.5924 56.3938V52.3681C45.8123 50.8971 46.4985 49.0391 46.4985 47.0262C46.4985 42.3038 42.6862 38.5103 38.0352 38.5103C33.3842 38.5103 29.5718 42.3038 29.5718 47.0262C29.5718 49.0391 30.2581 50.9745 31.478 52.4455V56.3938H28.6569C27.8182 56.3938 27.132 55.7744 27.132 54.9228V34.2523H41.7713C43.2962 34.2523 44.5924 32.9362 44.5924 31.3879V25.659C44.5924 23.9558 45.7361 22.6397 47.261 22.4849H48.4047C49.7771 22.4849 50.8446 23.6461 50.8446 25.0396V56.3938H44.5924ZM58.6979 55.0003C58.6979 55.7744 58.088 56.3938 57.3255 56.3938H54.3519V48.0327H57.3255C58.088 48.0327 58.6979 48.652 58.6979 49.4262V55.0003Z" fill="white"/>
</g>
<defs>
<filter id="filter0_d_161_646" x="0.403571" y="0.567856" width="88.6649" height="89.3746" filterUnits="userSpaceOnUse" color-interpolation-filters="sRGB">
<feFlood flood-opacity="0" result="BackgroundImageFix"/>
<feColorMatrix in="SourceAlpha" type="matrix" values="0 0 0 0 0 0 0 0 0 0 0 0 0 0 0 0 0 0 127 0" result="hardAlpha"/>
<feOffset dx="5.67143" dy="2.83571"/>
<feGaussianBlur stdDeviation="10.6339"/>
<feComposite in2="hardAlpha" operator="out"/>
<feColorMatrix type="matrix" values="0 0 0 0 0 0 0 0 0 0 0 0 0 0 0 0 0 0 0.15 0"/>
<feBlend mode="normal" in2="BackgroundImageFix" result="effect1_dropShadow_161_646"/>
<feBlend mode="normal" in="SourceGraphic" in2="effect1_dropShadow_161_646" result="shape"/>
</filter>
</defs>
</svg>
