<svg width="47" height="47" viewBox="0 0 47 47" fill="none" xmlns="http://www.w3.org/2000/svg">
<path d="M41.3255 25.5489H38.3519V6.03965C38.3519 2.78811 35.8358 0.155913 32.7859 0.00107784H8.69208C3.88856 -0.0763397 0 4.02679 0 9.05893V12.3879C0 13.9362 1.29619 15.2523 2.82111 15.2523H7.77713V35.9228C7.77713 38.6325 9.98827 40.8776 12.7331 40.8776H15.5543V44.8259C15.5543 45.6 15.9355 46.2194 16.6217 46.6065C16.9267 46.7613 17.2317 46.8387 17.5367 46.8387C17.9179 46.8387 18.2991 46.7613 18.6041 46.529L22.1114 44.2065L25.5425 46.4516L25.695 46.529C26.3812 46.8387 27.0674 46.8387 27.6774 46.4516C28.2874 46.0645 28.5924 45.4452 28.5924 44.7484V40.8776H41.3255C43.9179 40.8776 46.129 38.7099 46.129 36.0003V30.3488C46.129 27.7166 43.9179 25.5489 41.3255 25.5489ZM3.43109 9.05893C3.43109 5.96223 5.79472 3.40745 8.69208 3.40745H26C25.5425 4.33646 25.2375 5.42031 25.2375 6.58157V11.7685H3.43109V9.05893ZM22.0352 33.0584C19.2141 33.0584 17.0029 30.8133 17.0029 28.0262C17.0029 25.2392 19.2903 22.9941 22.0352 22.9941C24.7801 22.9941 27.0674 25.2392 27.0674 28.0262C27.0674 30.8133 24.8563 33.0584 22.0352 33.0584ZM23.3314 40.8776C22.5689 40.3356 21.5777 40.3356 20.739 40.8776L18.9091 42.1162V35.9228C19.9003 36.3099 20.9677 36.5422 22.0352 36.5422C23.1789 36.5422 24.2463 36.3099 25.1613 35.9228V42.1162L23.3314 40.8776ZM28.5924 37.3938V33.3681C29.8123 31.8971 30.4985 30.0391 30.4985 28.0262C30.4985 23.3038 26.6862 19.5103 22.0352 19.5103C17.3842 19.5103 13.5718 23.3038 13.5718 28.0262C13.5718 30.0391 14.2581 31.9745 15.478 33.4455V37.3938H12.6569C11.8182 37.3938 11.132 36.7744 11.132 35.9228V15.2523H25.7713C27.2962 15.2523 28.5924 13.9362 28.5924 12.3879V6.65899C28.5924 4.9558 29.7361 3.6397 31.261 3.48487H32.4047C33.7771 3.48487 34.8446 4.64613 34.8446 6.03965V37.3938H28.5924ZM42.6979 36.0003C42.6979 36.7744 42.088 37.3938 41.3255 37.3938H38.3519V29.0327H41.3255C42.088 29.0327 42.6979 29.652 42.6979 30.4262V36.0003Z" fill="white"/>
</svg>
