<svg width="46" height="47" viewBox="0 0 46 47" fill="none" xmlns="http://www.w3.org/2000/svg">
<path d="M41.0887 0H4.72634C2.13448 0 0 2.15267 0 4.76662V41.362C0 43.9759 2.13448 46.1286 4.72634 46.1286H41.0124C43.6043 46.1286 45.7388 43.9759 45.7388 41.362V4.76662C45.815 2.15267 43.6805 0 41.0887 0ZM4.72634 3.45965H41.0124C41.7747 3.45965 42.3846 4.07469 42.3846 4.8435V11.609H3.43041V4.76662C3.43041 3.99781 4.04026 3.45965 4.72634 3.45965ZM14.9413 14.9918H42.3846V27.2159H14.9413V14.9918ZM3.43041 41.4389V14.9918H11.5109V42.7458H4.72634C4.04026 42.7458 3.43041 42.1308 3.43041 41.4389ZM41.0887 42.7458H14.9413V30.6755H42.3846V41.4389C42.3846 42.1308 41.851 42.7458 41.0887 42.7458Z" fill="white"/>
</svg>
