<svg width="94" height="84" viewBox="0 0 94 84" fill="none" xmlns="http://www.w3.org/2000/svg">
<g filter="url(#filter0_d_163_659)">
<path d="M53.4508 34.4672L53.8505 33.5717L54.2502 34.4672C54.57 35.1999 55.2894 35.6069 56.0888 35.6069C56.8883 35.6069 57.5278 35.1999 57.9275 34.4672L59.926 30.3155C60.4056 29.4201 60.0059 28.2804 59.1266 27.8734C58.2472 27.4663 57.1281 27.792 56.7284 28.6874L56.0888 29.9085L55.6891 29.013C55.3694 28.2804 54.6499 27.8734 53.8505 27.8734C53.0511 27.8734 52.4116 28.2804 52.0119 29.013L51.6122 29.9085L51.0526 28.606C50.5729 27.7106 49.5337 27.3035 48.6544 27.792C48.1747 28.0362 47.855 28.5246 47.6951 29.013C47.6151 28.5246 47.2154 28.0362 46.7358 27.792C45.8564 27.3035 44.7373 27.7106 44.3376 28.606L43.698 29.8271L43.2983 28.9316C42.9786 28.199 42.2591 27.792 41.4597 27.792C40.6603 27.792 40.0208 28.199 39.6211 28.9316L39.2214 29.8271L38.5818 28.606C38.1022 27.7106 37.063 27.3035 36.1836 27.792C35.704 28.0362 35.3842 28.5246 35.2243 29.013C35.1444 28.5246 34.7447 28.0362 34.265 27.792C33.3857 27.3035 32.2665 27.7106 31.8668 28.606L31.2273 29.8271L30.8276 28.9316C30.5078 28.199 29.7883 27.792 28.9889 27.792C28.1895 27.792 27.55 28.199 27.1503 28.9316L26.7506 29.8271L26.1111 28.606C25.6314 27.7106 24.5922 27.3035 23.7128 27.792C22.8335 28.2804 22.4338 29.3387 22.9134 30.2341L24.912 34.3858C25.2317 35.1184 25.9512 35.5255 26.7506 35.5255C27.55 35.5255 28.1895 35.1184 28.5892 34.3858L28.9889 33.4903L29.3886 34.3858C29.7084 35.1184 30.4279 35.5255 31.2273 35.5255C32.0267 35.5255 32.6662 35.1184 33.0659 34.3858L35.0644 30.2341C35.1444 30.0713 35.1444 29.9899 35.2243 29.8271C35.2243 29.9899 35.3043 30.0713 35.3842 30.2341L37.3827 34.3858C37.7025 35.1184 38.4219 35.5255 39.2214 35.5255C40.0208 35.5255 40.6603 35.1184 41.06 34.3858L41.4597 33.4903L41.8594 34.3858C42.1792 35.1184 42.8986 35.5255 43.698 35.5255C44.4974 35.5255 45.137 35.1184 45.5367 34.3858L47.5352 30.2341C47.6151 30.0713 47.6151 29.9899 47.6951 29.8271C47.6951 29.9899 47.775 30.0713 47.855 30.2341L49.8535 34.3858C50.1732 35.1184 50.8927 35.5255 51.6921 35.5255C52.4116 35.6069 53.131 35.1184 53.4508 34.4672Z" fill="white"/>
<path d="M62.5644 19H20.3557C18.1973 19 16.5186 20.7909 16.5186 22.9889V40.2468C16.5186 42.4448 18.2773 44.2357 20.3557 44.2357H45.6969C46.6562 44.2357 47.5356 43.4216 47.5356 42.3634C47.5356 41.3051 46.7362 40.491 45.6969 40.491H20.3557C20.1958 40.491 20.1159 40.3282 20.1159 40.1654V22.9889C20.1159 22.8261 20.1958 22.6632 20.3557 22.6632H62.6444C62.8042 22.6632 62.8842 22.8261 62.8842 22.9889V40.2468C62.8842 40.4096 62.7243 40.5724 62.5644 40.5724C61.6051 40.5724 60.7258 41.3865 60.7258 42.4448C60.7258 43.503 61.5252 44.3171 62.5644 44.3171C64.7228 44.3171 66.4815 42.5262 66.4815 40.3282V22.9889C66.4815 20.7909 64.7228 19 62.5644 19Z" fill="white"/>
<path d="M64.8827 48.7948L53.6111 43.015C52.6518 42.5266 51.5326 42.6894 50.8931 43.4221C50.1736 44.1547 50.0138 45.2944 50.4934 46.2713L56.1692 57.7494C56.6488 58.6449 57.5282 59.2961 58.5674 59.2961H58.6474C59.5267 59.2961 60.3261 58.7263 60.6459 57.9122L62.0049 54.7374L65.1226 53.3535C65.922 53.0279 66.4016 52.2138 66.4816 51.3184C66.4016 50.1787 65.842 49.2018 64.8827 48.7948ZM59.207 51.8882L58.3276 53.9234L55.3698 47.9808L61.2055 50.9928L59.207 51.8882Z" fill="white"/>
</g>
<defs>
<filter id="filter0_d_163_659" x="0.922125" y="0.567856" width="92.4986" height="82.8316" filterUnits="userSpaceOnUse" color-interpolation-filters="sRGB">
<feFlood flood-opacity="0" result="BackgroundImageFix"/>
<feColorMatrix in="SourceAlpha" type="matrix" values="0 0 0 0 0 0 0 0 0 0 0 0 0 0 0 0 0 0 127 0" result="hardAlpha"/>
<feOffset dx="5.67143" dy="2.83571"/>
<feGaussianBlur stdDeviation="10.6339"/>
<feComposite in2="hardAlpha" operator="out"/>
<feColorMatrix type="matrix" values="0 0 0 0 0 0 0 0 0 0 0 0 0 0 0 0 0 0 0.15 0"/>
<feBlend mode="normal" in2="BackgroundImageFix" result="effect1_dropShadow_163_659"/>
<feBlend mode="normal" in="SourceGraphic" in2="effect1_dropShadow_163_659" result="shape"/>
</filter>
</defs>
</svg>
