<svg width="51" height="41" viewBox="0 0 51 41" fill="none" xmlns="http://www.w3.org/2000/svg">
<path d="M37.4508 15.4672L37.8505 14.5717L38.2502 15.4672C38.57 16.1999 39.2894 16.6069 40.0888 16.6069C40.8883 16.6069 41.5278 16.1999 41.9275 15.4672L43.926 11.3155C44.4056 10.4201 44.0059 9.28039 43.1266 8.87336C42.2472 8.46634 41.1281 8.79196 40.7284 9.68742L40.0888 10.9085L39.6891 10.013C39.3694 9.28039 38.6499 8.87336 37.8505 8.87336C37.0511 8.87336 36.4116 9.28039 36.0119 10.013L35.6122 10.9085L35.0526 9.60601C34.5729 8.71055 33.5337 8.30352 32.6544 8.79196C32.1747 9.03617 31.855 9.52461 31.6951 10.013C31.6151 9.52461 31.2154 9.03617 30.7358 8.79196C29.8564 8.30352 28.7373 8.71055 28.3376 9.60601L27.698 10.8271L27.2983 9.93163C26.9786 9.19898 26.2591 8.79196 25.4597 8.79196C24.6603 8.79196 24.0208 9.19898 23.6211 9.93163L23.2214 10.8271L22.5818 9.60601C22.1022 8.71055 21.063 8.30352 20.1836 8.79196C19.704 9.03617 19.3842 9.52461 19.2243 10.013C19.1444 9.52461 18.7447 9.03617 18.265 8.79196C17.3857 8.30352 16.2665 8.71055 15.8668 9.60601L15.2273 10.8271L14.8276 9.93163C14.5078 9.19898 13.7883 8.79196 12.9889 8.79196C12.1895 8.79196 11.55 9.19898 11.1503 9.93163L10.7506 10.8271L10.1111 9.60601C9.63143 8.71055 8.5922 8.30352 7.71285 8.79196C6.8335 9.28039 6.4338 10.3387 6.91344 11.2341L8.91196 15.3858C9.23172 16.1184 9.95119 16.5255 10.7506 16.5255C11.55 16.5255 12.1895 16.1184 12.5892 15.3858L12.9889 14.4903L13.3886 15.3858C13.7084 16.1184 14.4279 16.5255 15.2273 16.5255C16.0267 16.5255 16.6662 16.1184 17.0659 15.3858L19.0644 11.2341C19.1444 11.0713 19.1444 10.9899 19.2243 10.8271C19.2243 10.9899 19.3043 11.0713 19.3842 11.2341L21.3827 15.3858C21.7025 16.1184 22.4219 16.5255 23.2214 16.5255C24.0208 16.5255 24.6603 16.1184 25.06 15.3858L25.4597 14.4903L25.8594 15.3858C26.1792 16.1184 26.8986 16.5255 27.698 16.5255C28.4974 16.5255 29.137 16.1184 29.5367 15.3858L31.5352 11.2341C31.6151 11.0713 31.6151 10.9899 31.6951 10.8271C31.6951 10.9899 31.775 11.0713 31.855 11.2341L33.8535 15.3858C34.1732 16.1184 34.8927 16.5255 35.6921 16.5255C36.4116 16.6069 37.131 16.1184 37.4508 15.4672Z" fill="white"/>
<path d="M46.5644 0H4.35571C2.19731 0 0.518555 1.79092 0.518555 3.98886V21.2468C0.518555 23.4448 2.27725 25.2357 4.35571 25.2357H29.6969C30.6562 25.2357 31.5356 24.4216 31.5356 23.3634C31.5356 22.3051 30.7362 21.491 29.6969 21.491H4.35571C4.19583 21.491 4.11589 21.3282 4.11589 21.1654V3.98886C4.11589 3.82605 4.19583 3.66324 4.35571 3.66324H46.6444C46.8042 3.66324 46.8842 3.82605 46.8842 3.98886V21.2468C46.8842 21.4096 46.7243 21.5724 46.5644 21.5724C45.6051 21.5724 44.7258 22.3865 44.7258 23.4448C44.7258 24.503 45.5252 25.3171 46.5644 25.3171C48.7228 25.3171 50.4815 23.5262 50.4815 21.3282V3.98886C50.4815 1.79092 48.7228 0 46.5644 0Z" fill="white"/>
<path d="M48.8827 29.7948L37.6111 24.015C36.6518 23.5266 35.5326 23.6894 34.8931 24.4221C34.1736 25.1547 34.0138 26.2944 34.4934 27.2713L40.1692 38.7494C40.6488 39.6449 41.5282 40.2961 42.5674 40.2961H42.6474C43.5267 40.2961 44.3261 39.7263 44.6459 38.9122L46.0049 35.7374L49.1226 34.3535C49.922 34.0279 50.4016 33.2138 50.4816 32.3184C50.4016 31.1787 49.842 30.2018 48.8827 29.7948ZM43.207 32.8882L42.3276 34.9234L39.3698 28.9808L45.2055 31.9928L43.207 32.8882Z" fill="white"/>
</svg>
