<svg width="89" height="74" viewBox="0 0 89 74" fill="none" xmlns="http://www.w3.org/2000/svg">
<g filter="url(#filter0_d_163_650)">
<path d="M57.0455 19H20.6952C18.1204 19 16 21.1384 16 23.7351V44.8903C16 47.487 18.1204 49.6254 20.6952 49.6254H57.0455C59.6203 49.6254 61.7407 47.487 61.7407 44.8903V23.8115C61.7407 21.1384 59.6203 19 57.0455 19ZM58.4086 44.8903C58.4086 45.654 57.8028 46.265 57.0455 46.265H20.6952C19.9379 46.265 19.3321 45.654 19.3321 44.8903V23.8115C19.3321 23.0477 19.9379 22.4368 20.6952 22.4368H57.0455C57.8028 22.4368 58.4086 23.0477 58.4086 23.8115V44.8903Z" fill="white"/>
<path d="M38.8704 25.8726C37.9616 25.8726 37.2043 26.6363 37.2043 27.5528V39.2378C37.2043 40.1542 37.9616 40.918 38.8704 40.918C39.7792 40.918 40.5365 40.1542 40.5365 39.2378V27.5528C40.5365 26.6363 39.7792 25.8726 38.8704 25.8726Z" fill="white"/>
<path d="M23.4214 35.1148H30.1614C31.0701 35.1148 31.8274 34.3511 31.8274 33.4346C31.8274 32.5181 31.0701 31.7544 30.1614 31.7544H23.4214C22.5127 31.7544 21.7554 32.5181 21.7554 33.4346C21.7554 34.3511 22.5127 35.1148 23.4214 35.1148Z" fill="white"/>
<path d="M54.016 25.8726H46.8974C45.7615 25.8726 44.9285 26.789 44.9285 27.8582V35.0373C44.9285 36.1065 45.8372 37.023 46.8974 37.023H54.016C55.0762 37.023 55.985 36.1065 55.985 35.0373V27.8582C55.985 26.7127 55.0762 25.8726 54.016 25.8726ZM52.5772 33.5862H48.2606V29.233H52.5772V33.5862Z" fill="white"/>
<path d="M32.0546 37.4819H23.4214C22.5127 37.4819 21.7554 38.2457 21.7554 39.1621C21.7554 40.0786 22.5127 40.8423 23.4214 40.8423H32.0546C32.9634 40.8423 33.7207 40.0786 33.7207 39.1621C33.7207 38.2457 33.0391 37.4819 32.0546 37.4819Z" fill="white"/>
</g>
<defs>
<filter id="filter0_d_163_650" x="0.403571" y="0.567856" width="88.2764" height="73.1612" filterUnits="userSpaceOnUse" color-interpolation-filters="sRGB">
<feFlood flood-opacity="0" result="BackgroundImageFix"/>
<feColorMatrix in="SourceAlpha" type="matrix" values="0 0 0 0 0 0 0 0 0 0 0 0 0 0 0 0 0 0 127 0" result="hardAlpha"/>
<feOffset dx="5.67143" dy="2.83571"/>
<feGaussianBlur stdDeviation="10.6339"/>
<feComposite in2="hardAlpha" operator="out"/>
<feColorMatrix type="matrix" values="0 0 0 0 0 0 0 0 0 0 0 0 0 0 0 0 0 0 0.15 0"/>
<feBlend mode="normal" in2="BackgroundImageFix" result="effect1_dropShadow_163_650"/>
<feBlend mode="normal" in="SourceGraphic" in2="effect1_dropShadow_163_650" result="shape"/>
</filter>
</defs>
</svg>
