<svg width="46" height="31" viewBox="0 0 46 31" fill="none" xmlns="http://www.w3.org/2000/svg">
<path d="M41.0455 0H4.69524C2.12043 0 0 2.13843 0 4.7351V25.8903C0 28.487 2.12043 30.6254 4.69524 30.6254H41.0455C43.6203 30.6254 45.7407 28.487 45.7407 25.8903V4.81147C45.7407 2.13843 43.6203 0 41.0455 0ZM42.4086 25.8903C42.4086 26.654 41.8028 27.265 41.0455 27.265H4.69524C3.93794 27.265 3.33211 26.654 3.33211 25.8903V4.81147C3.33211 4.04775 3.93794 3.43677 4.69524 3.43677H41.0455C41.8028 3.43677 42.4086 4.04775 42.4086 4.81147V25.8903Z" fill="white"/>
<path d="M22.8704 6.87256C21.9616 6.87256 21.2043 7.63628 21.2043 8.55276V20.2378C21.2043 21.1542 21.9616 21.918 22.8704 21.918C23.7792 21.918 24.5365 21.1542 24.5365 20.2378V8.55276C24.5365 7.63628 23.7792 6.87256 22.8704 6.87256Z" fill="white"/>
<path d="M7.42142 16.1148H14.1614C15.0701 16.1148 15.8274 15.3511 15.8274 14.4346C15.8274 13.5181 15.0701 12.7544 14.1614 12.7544H7.42142C6.51267 12.7544 5.75537 13.5181 5.75537 14.4346C5.75537 15.3511 6.51267 16.1148 7.42142 16.1148Z" fill="white"/>
<path d="M38.016 6.87256H30.8974C29.7615 6.87256 28.9285 7.78903 28.9285 8.85825V16.0373C28.9285 17.1065 29.8372 18.023 30.8974 18.023H38.016C39.0762 18.023 39.985 17.1065 39.985 16.0373V8.85825C39.985 7.71266 39.0762 6.87256 38.016 6.87256ZM36.5772 14.5862H32.2606V10.233H36.5772V14.5862Z" fill="white"/>
<path d="M16.0546 18.4819H7.42143C6.51267 18.4819 5.75537 19.2457 5.75537 20.1621C5.75537 21.0786 6.51267 21.8423 7.42143 21.8423H16.0546C16.9634 21.8423 17.7207 21.0786 17.7207 20.1621C17.7207 19.2457 17.0391 18.4819 16.0546 18.4819Z" fill="white"/>
</svg>
