<svg width="28" height="28" viewBox="0 0 28 28" fill="none" xmlns="http://www.w3.org/2000/svg">
<path d="M14 0C6.32258 0 0 6.23226 0 14C0 20.1419 4.01935 25.3806 9.61935 27.2774C10.3419 27.4129 10.5677 26.9613 10.5677 26.6452C10.5677 26.329 10.5677 25.4258 10.5226 24.2065C6.63871 25.1097 5.82581 22.3097 5.82581 22.3097C5.19355 20.729 4.24516 20.2774 4.24516 20.2774C2.98064 19.3742 4.29032 19.3742 4.29032 19.3742C5.69032 19.4194 6.45806 20.8194 6.45806 20.8194C7.67742 22.9871 9.75484 22.3548 10.5226 21.9484C10.6581 21.0452 11.0194 20.4129 11.4258 20.0516C8.35484 19.7355 5.05806 18.5161 5.05806 13.1871C5.05806 11.6516 5.64516 10.4323 6.50323 9.48387C6.36774 9.16774 5.87097 7.72258 6.63871 5.78065C6.63871 5.78065 7.85806 5.41935 10.5226 7.22581C11.6516 6.90968 12.8258 6.72903 14.0452 6.72903C15.2645 6.72903 16.4839 6.86452 17.5677 7.22581C20.2323 5.46452 21.4065 5.78065 21.4065 5.78065C22.1742 7.67742 21.7226 9.16774 21.5419 9.48387C22.4452 10.4323 22.9871 11.6968 22.9871 13.1871C22.9871 18.5161 19.6903 19.7355 16.6194 20.0516C17.1161 20.5032 17.5677 21.4065 17.5677 22.671C17.5677 24.5677 17.5226 26.0581 17.5226 26.5097C17.5226 26.871 17.7935 27.2774 18.471 27.1419C23.9806 25.2903 28 20.0968 28 13.9097C27.9548 6.23226 21.6774 0 14 0Z" fill="white"/>
</svg>
