<svg width="28" height="28" viewBox="0 0 28 28" fill="none" xmlns="http://www.w3.org/2000/svg">
<g clip-path="url(#clip0_145_9)">
<path d="M27.5188 8.4C27.475 7 27.2125 5.99375 26.9062 5.075C26.6 4.15625 26.1187 3.4125 25.375 2.66875C24.6313 1.925 23.8875 1.4875 23.0125 1.1375C22.1375 0.7875 21.175 0.56875 19.6875 0.525C18.1562 0.4375 17.7188 0.4375 14 0.4375C10.2812 0.4375 9.8875 0.4375 8.4 0.48125C6.9125 0.525 5.99375 0.7875 5.075 1.09375C4.15625 1.4 3.4125 1.925 2.66875 2.66875C1.925 3.4125 1.44375 4.15625 1.1375 5.075C0.7875 5.95 0.56875 6.9125 0.525 8.4C0.48125 9.8875 0.4375 10.2812 0.4375 14C0.4375 17.7188 0.4375 18.1125 0.48125 19.6C0.525 21.0875 0.7875 22.0063 1.09375 22.925C1.4 23.8438 1.88125 24.5875 2.625 25.3313C3.36875 26.075 4.15625 26.5563 5.03125 26.8625C5.90625 27.1688 6.86875 27.4312 8.35625 27.475C9.84375 27.5625 10.2375 27.5625 13.9563 27.5625C17.675 27.5625 18.0688 27.5625 19.5562 27.5188C21.0438 27.475 21.9625 27.2125 22.8813 26.9062C23.8 26.6 24.5437 26.1187 25.2875 25.375C26.0312 24.6313 26.5125 23.8438 26.8188 22.9688C27.125 22.0938 27.3875 21.1313 27.4312 19.6438C27.475 18.2438 27.475 17.8062 27.475 14.0875C27.475 10.3688 27.5625 9.8875 27.5188 8.4ZM25.0688 19.4688C25.025 20.7812 24.7625 21.4812 24.5875 22.0063C24.325 22.6187 24.0187 23.1 23.5375 23.5375C23.0562 24.0187 22.6187 24.2812 22.0063 24.5875C21.525 24.7625 20.825 25.025 19.4688 25.0688C18.0688 25.0688 17.6312 25.0688 14.0437 25.0688C10.4562 25.0688 9.975 25.0688 8.575 25.025C7.2625 24.9813 6.5625 24.7188 6.0375 24.5437C5.425 24.2812 4.94375 23.975 4.50625 23.4937C4.025 23.0125 3.7625 22.575 3.45625 21.9625C3.28125 21.4813 3.01875 20.7812 2.975 19.425C2.975 18.0688 2.975 17.6313 2.975 14C2.975 10.3687 2.975 9.93125 3.01875 8.53125C3.0625 7.21875 3.325 6.51875 3.5 5.99375C3.7625 5.38125 4.06875 4.9 4.50625 4.4625C4.9875 3.98125 5.425 3.71875 6.0375 3.45625C6.51875 3.28125 7.21875 3.01875 8.575 2.975C9.975 2.93125 10.4125 2.93125 14.0437 2.93125C17.675 2.93125 18.1125 2.93125 19.5125 2.975C20.825 3.01875 21.525 3.28125 22.05 3.45625C22.6625 3.71875 23.1438 4.025 23.5813 4.4625C24.0625 4.94375 24.325 5.38125 24.6313 5.99375C24.8062 6.475 25.0688 7.175 25.1125 8.53125C25.1562 9.93125 25.1562 10.3687 25.1562 14C25.1562 17.6313 25.1125 18.0688 25.0688 19.4688Z" fill="white"/>
<path d="M14.0007 7.04297C10.1069 7.04297 7.04443 10.193 7.04443 13.9992C7.04443 17.893 10.1944 20.9555 14.0007 20.9555C17.8069 20.9555 21.0007 17.893 21.0007 13.9992C21.0007 10.1055 17.8944 7.04297 14.0007 7.04297ZM14.0007 18.5492C11.4632 18.5492 9.45068 16.493 9.45068 13.9992C9.45068 11.5055 11.5069 9.44922 14.0007 9.44922C16.5382 9.44922 18.5507 11.4617 18.5507 13.9992C18.5507 16.5367 16.5382 18.5492 14.0007 18.5492Z" fill="white"/>
<path d="M21.3063 8.35615C22.2003 8.35615 22.925 7.63139 22.925 6.7374C22.925 5.84337 22.2003 5.11865 21.3063 5.11865C20.4122 5.11865 19.6875 5.84337 19.6875 6.7374C19.6875 7.63139 20.4122 8.35615 21.3063 8.35615Z" fill="white"/>
</g>
<defs>
<clipPath id="clip0_145_9">
<rect width="28" height="28" fill="white"/>
</clipPath>
</defs>
</svg>
