<svg width="46" height="47" viewBox="0 0 46 47" fill="none" xmlns="http://www.w3.org/2000/svg">
<path d="M43.3525 15.4128L37.2027 21.6863C34.0898 24.8618 29.2307 25.1716 25.7382 22.6157L22.0939 26.3333C23.1568 27.8049 23.7642 29.5863 23.7642 31.5225C23.7642 33.9235 22.8531 36.247 21.1828 37.9509L15.0329 44.2244C11.6164 47.7097 5.99799 47.7097 2.50549 44.2244C0.911087 42.4431 0 40.197 0 37.796C0 35.395 0.911087 33.149 2.58141 31.4451L8.65532 25.1716C10.4016 23.3902 12.6793 22.5382 14.8811 22.5382C16.5514 22.5382 18.1458 23.0029 19.5884 23.9324L23.3846 20.0598C22.4735 18.6657 22.0179 16.9618 22.0179 15.2579C22.0179 12.8569 22.929 10.6108 24.5993 8.90693L30.6733 2.63343C32.4195 0.852066 34.6972 0.000106812 36.899 0.000106812C39.1767 0.000106812 41.4544 0.852066 43.1248 2.63343C44.7951 4.33735 45.7062 6.58341 45.7062 8.98438C45.934 11.3854 45.0229 13.6314 43.3525 15.4128ZM11.0849 27.65L5.01098 33.9235C3.94804 35.0078 3.41658 36.4019 3.41658 37.8735C3.41658 39.345 3.94804 40.7391 5.01098 41.8235C6.07391 42.9078 7.44054 43.4499 8.8831 43.4499C10.2497 43.4499 11.6923 42.9078 12.7552 41.8235L18.9051 35.6274C19.8921 34.5431 20.4995 33.149 20.4995 31.6774C20.4995 30.6706 20.2717 29.8186 19.8161 28.9666L17.918 30.9029C17.2347 31.6 16.1718 31.6 15.4885 30.9029C14.8052 30.2059 14.8052 29.1215 15.4885 28.4245L17.2347 26.6431C15.1089 25.5588 12.6793 25.9461 11.0849 27.65ZM40.8471 5.11185C38.7212 2.94323 35.2287 2.94323 33.1787 5.11185L27.1048 11.3853C26.0419 12.4697 25.5104 13.8638 25.5104 15.3353C25.5104 16.1098 25.6623 16.8843 25.966 17.5814L27.7122 15.8775C28.0159 15.5677 28.4715 15.3353 28.927 15.3353C29.3825 15.3353 29.8381 15.4902 30.1418 15.8775C30.8251 16.5745 30.8251 17.6589 30.1418 18.3559L28.2437 20.0598C29.0789 20.5245 29.9899 20.7569 30.901 20.7569C32.2677 20.7569 33.7102 20.2147 34.7731 19.1304L40.923 12.9344C41.91 11.8501 42.5174 10.4559 42.5174 8.98438C42.4415 7.51282 41.91 6.11871 40.8471 5.11185Z" fill="white"/>
</svg>
