<svg width="28" height="29" viewBox="0 0 28 29" fill="none" xmlns="http://www.w3.org/2000/svg">
<path d="M26.0428 0H2.04168C0.907414 0 0 0.907414 0 2.04168V26.0882C0 27.177 0.907414 28.1298 2.04168 28.1298H25.9521C27.0863 28.1298 27.9937 27.2224 27.9937 26.0882V1.99631C28.0845 0.907414 27.1771 0 26.0428 0ZM8.30286 23.9104H4.17412V10.526H8.30286V23.9104ZM6.2158 8.6658C4.85468 8.6658 3.81114 7.57691 3.81114 6.26116C3.81114 4.94541 4.90005 3.85651 6.2158 3.85651C7.53155 3.85651 8.62045 4.94541 8.62045 6.26116C8.62045 7.57691 7.6223 8.6658 6.2158 8.6658ZM23.9557 23.9104H19.827V17.4223C19.827 15.8797 19.7816 13.8381 17.6492 13.8381C15.4714 13.8381 15.1538 15.5621 15.1538 17.2862V23.9104H11.0251V10.526H15.0631V12.3862H15.1085C15.6983 11.2973 17.014 10.2084 19.0557 10.2084C23.2752 10.2084 24.0465 12.9306 24.0465 16.651V23.9104H23.9557Z" fill="white"/>
</svg>
