<svg width="89" height="90" viewBox="0 0 89 90" fill="none" xmlns="http://www.w3.org/2000/svg">
<g filter="url(#filter0_d_161_567)">
<path d="M59.3525 34.4128L53.2027 40.6863C50.0898 43.8618 45.2307 44.1716 41.7382 41.6157L38.0939 45.3333C39.1568 46.8049 39.7642 48.5863 39.7642 50.5225C39.7642 52.9235 38.8531 55.247 37.1828 56.9509L31.0329 63.2244C27.6164 66.7097 21.998 66.7097 18.5055 63.2244C16.9111 61.4431 16 59.197 16 56.796C16 54.395 16.9111 52.149 18.5814 50.4451L24.6553 44.1716C26.4016 42.3902 28.6793 41.5382 30.8811 41.5382C32.5514 41.5382 34.1458 42.0029 35.5884 42.9324L39.3846 39.0598C38.4735 37.6657 38.0179 35.9618 38.0179 34.2579C38.0179 31.8569 38.929 29.6108 40.5993 27.9069L46.6733 21.6334C48.4195 19.8521 50.6972 19.0001 52.899 19.0001C55.1767 19.0001 57.4544 19.8521 59.1248 21.6334C60.7951 23.3373 61.7062 25.5834 61.7062 27.9844C61.934 30.3854 61.0229 32.6314 59.3525 34.4128ZM27.0849 46.65L21.011 52.9235C19.948 54.0078 19.4166 55.4019 19.4166 56.8735C19.4166 58.345 19.948 59.7391 21.011 60.8235C22.0739 61.9078 23.4405 62.4499 24.8831 62.4499C26.2497 62.4499 27.6923 61.9078 28.7552 60.8235L34.9051 54.6274C35.8921 53.5431 36.4995 52.149 36.4995 50.6774C36.4995 49.6706 36.2717 48.8186 35.8161 47.9666L33.918 49.9029C33.2347 50.6 32.1718 50.6 31.4885 49.9029C30.8052 49.2059 30.8052 48.1215 31.4885 47.4245L33.2347 45.6431C31.1089 44.5588 28.6793 44.9461 27.0849 46.65ZM56.8471 24.1119C54.7212 21.9432 51.2287 21.9432 49.1787 24.1119L43.1048 30.3853C42.0419 31.4697 41.5104 32.8638 41.5104 34.3353C41.5104 35.1098 41.6623 35.8843 41.966 36.5814L43.7122 34.8775C44.0159 34.5677 44.4715 34.3353 44.927 34.3353C45.3825 34.3353 45.8381 34.4902 46.1418 34.8775C46.8251 35.5745 46.8251 36.6589 46.1418 37.3559L44.2437 39.0598C45.0789 39.5245 45.9899 39.7569 46.901 39.7569C48.2677 39.7569 49.7102 39.2147 50.7731 38.1304L56.923 31.9344C57.91 30.8501 58.5174 29.4559 58.5174 27.9844C58.4415 26.5128 57.91 25.1187 56.8471 24.1119Z" fill="white"/>
</g>
<defs>
<filter id="filter0_d_161_567" x="0.403571" y="0.567856" width="88.2764" height="89.3741" filterUnits="userSpaceOnUse" color-interpolation-filters="sRGB">
<feFlood flood-opacity="0" result="BackgroundImageFix"/>
<feColorMatrix in="SourceAlpha" type="matrix" values="0 0 0 0 0 0 0 0 0 0 0 0 0 0 0 0 0 0 127 0" result="hardAlpha"/>
<feOffset dx="5.67143" dy="2.83571"/>
<feGaussianBlur stdDeviation="10.6339"/>
<feComposite in2="hardAlpha" operator="out"/>
<feColorMatrix type="matrix" values="0 0 0 0 0 0 0 0 0 0 0 0 0 0 0 0 0 0 0.15 0"/>
<feBlend mode="normal" in2="BackgroundImageFix" result="effect1_dropShadow_161_567"/>
<feBlend mode="normal" in="SourceGraphic" in2="effect1_dropShadow_161_567" result="shape"/>
</filter>
</defs>
</svg>
