<svg width="56" height="56" viewBox="0 0 56 56" fill="none" xmlns="http://www.w3.org/2000/svg">
<circle cx="28" cy="28" r="28" transform="matrix(-1 0 0 1 56 0)" fill="url(#paint0_linear_81_10)"/>
<path d="M34.9188 28.3333C36.7384 28.3329 38.5091 27.7639 39.9672 26.7112C41.4254 25.6584 42.4929 24.1782 43.0108 22.4911C43.5287 20.8039 43.4692 19.0001 42.8413 17.3483C42.2133 15.6965 41.0505 14.2851 39.526 13.3243C38.0015 12.3635 36.1969 11.9048 34.381 12.0165C32.5651 12.1281 30.8351 12.8041 29.4486 13.9439C28.0622 15.0836 27.0935 16.6261 26.6868 18.3415C26.2802 20.057 26.4574 21.8535 27.1919 23.4637L23.7784 26.0303C22.9268 25.0187 21.7765 24.2822 20.481 23.919C19.1855 23.5557 17.8064 23.5831 16.5274 23.9974C15.2484 24.4117 14.1303 25.1932 13.3223 26.2378C12.5142 27.2824 12.0546 28.5404 12.0046 29.8441C11.9546 31.1478 12.3166 32.4353 13.0424 33.5349C13.7683 34.6345 14.8234 35.494 16.0671 35.9988C17.3109 36.5036 18.6842 36.6297 20.0039 36.3603C21.3236 36.0909 22.5271 35.4388 23.4539 34.491L29.2147 37.6177C28.7567 38.8298 28.7763 40.1626 29.2698 41.3616C29.7632 42.5606 30.696 43.5418 31.8899 44.1179C33.0839 44.6939 34.4554 44.8244 35.7425 44.4845C37.0296 44.1446 38.1422 43.358 38.8678 42.275C39.5934 41.192 39.8812 39.8885 39.6762 38.6133C39.4712 37.3381 38.7878 36.1806 37.7564 35.3618C36.7251 34.5431 35.4181 34.1204 34.085 34.1745C32.752 34.2287 31.4862 34.7558 30.5295 35.6553L24.7699 32.5298C25.1007 31.7539 25.2704 30.9226 25.2693 30.0833C25.2693 29.395 25.1571 28.73 24.9484 28.107L28.4814 25.4505C29.2731 26.3549 30.2593 27.0813 31.3711 27.5792C32.4829 28.0771 33.6936 28.3344 34.9188 28.3333ZM34.9188 26C33.3193 26 31.7853 25.3854 30.6543 24.2915C29.5233 23.1975 28.8879 21.7138 28.8879 20.1667C28.8879 18.6196 29.5233 17.1358 30.6543 16.0419C31.7853 14.9479 33.3193 14.3333 34.9188 14.3333C36.5183 14.3333 38.0523 14.9479 39.1834 16.0419C40.3144 17.1358 40.9498 18.6196 40.9498 20.1667C40.9498 21.7138 40.3144 23.1975 39.1834 24.2915C38.0523 25.3854 36.5183 26 34.9188 26ZM18.6352 34.1667C17.5155 34.1667 16.4417 33.7365 15.65 32.9707C14.8583 32.2049 14.4135 31.1663 14.4135 30.0833C14.4135 29.0004 14.8583 27.9618 15.65 27.196C16.4417 26.4302 17.5155 26 18.6352 26C19.7549 26 20.8287 26.4302 21.6204 27.196C22.4121 27.9618 22.8569 29.0004 22.8569 30.0833C22.8569 31.1663 22.4121 32.2049 21.6204 32.9707C20.8287 33.7365 19.7549 34.1667 18.6352 34.1667ZM37.3312 39.4167C37.3312 40.1902 37.0135 40.9321 36.448 41.4791C35.8825 42.026 35.1155 42.3333 34.3157 42.3333C33.516 42.3333 32.749 42.026 32.1835 41.4791C31.6179 40.9321 31.3002 40.1902 31.3002 39.4167C31.3002 38.6431 31.6179 37.9013 32.1835 37.3543C32.749 36.8073 33.516 36.5 34.3157 36.5C35.1155 36.5 35.8825 36.8073 36.448 37.3543C37.0135 37.9013 37.3312 38.6431 37.3312 39.4167Z" fill="white"/>
<defs>
<linearGradient id="paint0_linear_81_10" x1="56" y1="0" x2="0" y2="56" gradientUnits="userSpaceOnUse">
<stop stop-color="#4136F1"/>
<stop offset="0.796875" stop-color="#8442FE"/>
<stop offset="1" stop-color="#8743FF"/>
</linearGradient>
</defs>
</svg>
