<svg width="25" height="23" viewBox="0 0 25 23" fill="none" xmlns="http://www.w3.org/2000/svg">
<path d="M17.0556 3.55556C17.6078 3.55556 18.0556 3.10784 18.0556 2.55556V1.77778C18.0556 1.22549 17.6078 0.777779 17.0556 0.777779H3.77778C3.22549 0.777779 2.77778 1.22549 2.77778 1.77778V2.55556C2.77778 3.10784 3.22549 3.55556 3.77778 3.55556H17.0556ZM24 13.2778C24.5523 13.2778 25 12.8301 25 12.2778V11.5C25 10.9477 24.5523 10.5 24 10.5H1C0.447716 10.5 0 10.9477 0 11.5V12.2778C0 12.8301 0.447715 13.2778 1 13.2778H24ZM21.2222 23C21.7745 23 22.2222 22.5523 22.2222 22V21.2222C22.2222 20.6699 21.7745 20.2222 21.2222 20.2222H7.94445C7.39216 20.2222 6.94444 20.6699 6.94444 21.2222V22C6.94444 22.5523 7.39216 23 7.94444 23H21.2222Z" fill="white"/>
</svg>
