<svg width="89" height="87" viewBox="0 0 89 87" fill="none" xmlns="http://www.w3.org/2000/svg">
<g filter="url(#filter0_d_161_578)">
<path d="M58.5685 32.7609H54.0368V23.7158C54.0368 21.0873 51.9976 19 49.4296 19H24.5051C21.9372 19 19.8979 21.0873 19.8979 23.7158V37.2448C19.4447 37.6313 19.0671 38.1725 18.8405 38.8683L16.0459 52.7838C15.8949 53.5569 16.1215 54.4072 16.6502 55.0257C17.1033 55.6442 17.8586 55.9534 18.6139 55.9534H42.9341V58.6592C42.9341 60.4373 44.3692 61.9062 46.1063 61.9062H58.5685C60.3057 61.9062 61.7407 60.4373 61.7407 58.6592V36.0078C61.7407 34.2298 60.3057 32.7609 58.5685 32.7609ZM19.5958 52.4745L22.0882 40.1825H22.4659H43.0097V52.4745H19.5958ZM42.9341 36.0078V36.7036H23.2967V23.7158C23.2967 23.02 23.8254 22.4789 24.5051 22.4789H49.4296C50.1093 22.4789 50.638 23.02 50.638 23.7158V32.7609H46.1063C44.3692 32.7609 42.9341 34.2298 42.9341 36.0078ZM58.342 58.35H46.3329V36.2398H58.342V58.35Z" fill="white"/>
<path d="M50.638 42.1914H54.4145C55.3208 42.1914 56.1516 41.4184 56.1516 40.4133C56.1516 39.4856 55.3963 38.6353 54.4145 38.6353H50.638C49.7317 38.6353 48.9009 39.4083 48.9009 40.4133C48.9009 41.341 49.6562 42.1914 50.638 42.1914Z" fill="white"/>
<path d="M52.3749 54.175C52.2994 54.175 52.1483 54.2523 52.0728 54.2523C51.9973 54.3296 51.8462 54.3296 51.7707 54.4069C51.6951 54.4842 51.6196 54.5615 51.5441 54.6388C51.242 54.9481 51.0154 55.4119 51.0154 55.8758C51.0154 56.3396 51.1664 56.8035 51.5441 57.1127C51.6196 57.19 51.6951 57.2673 51.7707 57.3446C51.8462 57.4219 51.9973 57.4992 52.0728 57.4992C52.1483 57.5765 52.2994 57.5765 52.3749 57.5765C52.4504 57.5765 52.6015 57.5765 52.677 57.5765C53.1302 57.5765 53.5834 57.4219 53.8855 57.0354C54.1876 56.7262 54.4142 56.2623 54.4142 55.7985C54.4142 55.3346 54.2631 54.8707 53.8855 54.5615C53.5078 54.2523 52.9036 54.0977 52.3749 54.175Z" fill="white"/>
</g>
<defs>
<filter id="filter0_d_161_578" x="0.403571" y="0.567856" width="88.2764" height="85.442" filterUnits="userSpaceOnUse" color-interpolation-filters="sRGB">
<feFlood flood-opacity="0" result="BackgroundImageFix"/>
<feColorMatrix in="SourceAlpha" type="matrix" values="0 0 0 0 0 0 0 0 0 0 0 0 0 0 0 0 0 0 127 0" result="hardAlpha"/>
<feOffset dx="5.67143" dy="2.83571"/>
<feGaussianBlur stdDeviation="10.6339"/>
<feComposite in2="hardAlpha" operator="out"/>
<feColorMatrix type="matrix" values="0 0 0 0 0 0 0 0 0 0 0 0 0 0 0 0 0 0 0.15 0"/>
<feBlend mode="normal" in2="BackgroundImageFix" result="effect1_dropShadow_161_578"/>
<feBlend mode="normal" in="SourceGraphic" in2="effect1_dropShadow_161_578" result="shape"/>
</filter>
</defs>
</svg>
