<svg width="46" height="43" viewBox="0 0 46 43" fill="none" xmlns="http://www.w3.org/2000/svg">
<path d="M42.5685 13.7609H38.0368V4.71581C38.0368 2.08733 35.9976 0 33.4296 0H8.50514C5.93717 0 3.8979 2.08733 3.8979 4.71581V18.2448C3.44473 18.6313 3.06708 19.1725 2.8405 19.8683L0.0459403 33.7838C-0.105117 34.5569 0.121469 35.4072 0.650169 36.0257C1.10334 36.6442 1.85863 36.9534 2.61391 36.9534H26.9341V39.6592C26.9341 41.4373 28.3692 42.9062 30.1063 42.9062H42.5685C44.3057 42.9062 45.7407 41.4373 45.7407 39.6592V17.0078C45.7407 15.2298 44.3057 13.7609 42.5685 13.7609ZM3.59578 33.4745L6.08823 21.1825H6.46587H27.0097V33.4745H3.59578ZM26.9341 17.0078V17.7036H7.29669V4.71581C7.29669 4.02004 7.82539 3.47888 8.50514 3.47888H33.4296C34.1093 3.47888 34.638 4.02004 34.638 4.71581V13.7609H30.1063C28.3692 13.7609 26.9341 15.2298 26.9341 17.0078ZM42.342 39.35H30.3329V17.2398H42.342V39.35Z" fill="white"/>
<path d="M34.638 23.1914H38.4145C39.3208 23.1914 40.1516 22.4184 40.1516 21.4133C40.1516 20.4856 39.3963 19.6353 38.4145 19.6353H34.638C33.7317 19.6353 32.9009 20.4083 32.9009 21.4133C32.9009 22.341 33.6562 23.1914 34.638 23.1914Z" fill="white"/>
<path d="M36.3749 35.175C36.2994 35.175 36.1483 35.2523 36.0728 35.2523C35.9973 35.3296 35.8462 35.3296 35.7707 35.4069C35.6951 35.4842 35.6196 35.5615 35.5441 35.6388C35.242 35.9481 35.0154 36.4119 35.0154 36.8758C35.0154 37.3396 35.1664 37.8035 35.5441 38.1127C35.6196 38.19 35.6951 38.2673 35.7707 38.3446C35.8462 38.4219 35.9973 38.4992 36.0728 38.4992C36.1483 38.5765 36.2994 38.5765 36.3749 38.5765C36.4504 38.5765 36.6015 38.5765 36.677 38.5765C37.1302 38.5765 37.5834 38.4219 37.8855 38.0354C38.1876 37.7262 38.4142 37.2623 38.4142 36.7985C38.4142 36.3346 38.2631 35.8707 37.8855 35.5615C37.5078 35.2523 36.9036 35.0977 36.3749 35.175Z" fill="white"/>
</svg>
