<svg width="53" height="44" viewBox="0 0 53 44" fill="none" xmlns="http://www.w3.org/2000/svg">
<path d="M31.3368 40.5098H8.24653V16.8788H14.8437V13.5029H8.24653C6.43229 13.5029 4.94792 15.0221 4.94792 16.8788V27.0064H0V30.3822H4.94792V40.5098C4.94792 42.3666 6.43229 43.8857 8.24653 43.8857H31.3368C33.151 43.8857 34.6354 42.3666 34.6354 40.5098V33.7581H31.3368V40.5098Z" fill="white"/>
<path d="M18.1423 27.0064H34.6354V30.3822H18.1423V27.0064ZM18.1423 20.2547H34.6354V23.6305H18.1423V20.2547ZM18.1423 13.5029H34.6354V16.8788H18.1423V13.5029Z" fill="white"/>
<path d="M47.8298 13.5035V3.37586C47.8298 1.51914 46.3455 0 44.5312 0H21.4409C19.6267 0 18.1423 1.51914 18.1423 3.37586V10.1276H21.4409V3.37586H44.5312V27.0069H37.934V30.3828H44.5312C46.3455 30.3828 47.8298 28.8636 47.8298 27.0069V16.8793H52.7777V13.5035H47.8298Z" fill="white"/>
</svg>
