<svg width="46" height="48" viewBox="0 0 46 48" fill="none" xmlns="http://www.w3.org/2000/svg">
<path d="M39.101 6.87993C34.822 2.44619 28.9937 0 23.0179 0C10.4761 0 0.221326 10.5492 0.221326 23.5446C0.221326 27.749 1.25418 31.7241 3.24612 35.3934L0.630208 45.1882C0.349925 46.2377 0.209783 46.7624 0.497962 47.0515C0.786142 47.3406 1.31131 47.2021 2.36165 46.9251L12.1729 44.3373C15.4928 46.172 19.2554 47.2422 23.0917 47.2422C35.5597 47.1657 45.7407 36.6165 45.7407 23.5446C45.7407 17.2763 43.3799 11.3901 39.101 6.87993ZM22.9441 43.1907C19.6243 43.1907 16.1568 42.1969 13.2796 40.3622L13.0632 40.2277C12.8062 40.068 12.6777 39.9881 12.5325 39.9665C12.3872 39.9449 12.241 39.9839 11.9487 40.062L7.77972 41.1753C6.71687 41.4591 6.18544 41.6011 5.8961 41.309C5.60676 41.0169 5.75369 40.4868 6.04757 39.4267L7.21845 35.2029C7.29692 34.9198 7.33615 34.7783 7.31803 34.6366C7.2999 34.4949 7.22631 34.3678 7.07911 34.1136L6.93489 33.8645C5.0905 30.7303 4.05765 27.0611 4.05765 23.3918C4.05765 12.6132 12.468 3.89862 22.9441 3.89862C27.9609 3.89862 32.6825 5.9626 36.2237 9.6319C39.7649 13.3012 41.7569 18.27 41.7569 23.5446C41.9044 34.4761 33.3465 43.1907 22.9441 43.1907ZM33.3465 28.5135C32.7563 28.2077 30.0266 26.7553 29.3626 26.6788C28.8462 26.4495 28.4035 26.3731 28.1084 26.9846C27.8133 27.5962 26.6329 28.8193 26.3378 29.2779C26.0427 29.5837 25.7476 29.7366 25.0836 29.3544C24.4934 29.0486 22.7228 28.5135 20.5096 26.3731C18.8127 24.8442 17.6323 22.9331 17.411 22.2451C17.1159 21.6336 17.3372 21.4042 17.7061 21.022C18.0012 20.7162 18.2963 20.4105 18.5176 19.9518C18.8127 19.646 18.8127 19.3402 19.1078 18.958C19.4029 18.6523 19.1816 18.1936 19.034 17.8878C18.8127 17.582 17.7799 14.6772 17.2634 13.4541C16.8208 12.231 16.3044 12.4603 16.0093 12.4603C15.7142 12.4603 15.2715 12.4603 14.9764 12.4603C14.6813 12.4603 13.9435 12.5368 13.5009 13.2248C12.9845 13.8363 11.509 15.2887 11.509 18.1936C11.509 21.0984 13.5009 23.774 13.8698 24.3091C14.1649 24.6149 17.9274 30.6539 23.5344 33.253C24.8623 33.8645 25.8952 34.2467 26.7805 34.5525C28.1084 35.0112 29.3626 34.8583 30.3217 34.7819C31.4283 34.7054 33.6416 33.4059 34.158 31.9534C34.6007 30.6539 34.6007 29.3544 34.4531 29.125C34.3056 28.9721 33.8629 28.7428 33.3465 28.5135Z" fill="white"/>
</svg>
