<svg width="208" height="208" viewBox="0 0 208 208" fill="none" xmlns="http://www.w3.org/2000/svg">
<path d="M163.603 120.84L131.603 104.84C130.343 104.212 128.94 103.928 127.536 104.016C126.131 104.104 124.774 104.56 123.603 105.34L108.913 115.14C102.169 111.433 96.6198 105.883 92.9127 99.14L102.713 84.45C103.492 83.2783 103.949 81.9217 104.037 80.5171C104.125 79.1125 103.84 77.7096 103.213 76.45L87.2127 44.45C86.5495 43.1107 85.5245 41.984 84.2537 41.1975C82.9829 40.4109 81.5172 39.9961 80.0227 40C69.414 40 59.2399 44.2143 51.7384 51.7157C44.237 59.2172 40.0227 69.3913 40.0227 80C40.0492 103.331 49.3291 125.699 65.8265 142.196C82.324 158.694 104.692 167.974 128.023 168C133.276 168 138.477 166.965 143.33 164.955C148.183 162.945 152.593 159.999 156.307 156.284C160.021 152.57 162.968 148.16 164.978 143.307C166.988 138.454 168.023 133.253 168.023 128C168.024 126.514 167.611 125.057 166.83 123.792C166.049 122.527 164.932 121.505 163.603 120.84ZM128.023 152C108.934 151.979 90.6324 144.386 77.1344 130.888C63.6364 117.39 56.0439 99.0891 56.0227 80C56.0212 74.4512 57.9423 69.0733 61.4593 64.7814C64.9763 60.4896 69.8718 57.549 75.3127 56.46L86.7927 79.46L77.0227 94C76.2926 95.0951 75.844 96.3535 75.7167 97.6635C75.5894 98.9735 75.7872 100.295 76.2927 101.51C82.0165 115.114 92.8389 125.936 106.443 131.66C107.662 132.188 108.993 132.404 110.316 132.289C111.64 132.174 112.913 131.731 114.023 131L128.633 121.26L151.633 132.74C150.535 138.187 147.582 143.085 143.276 146.597C138.97 150.11 133.579 152.019 128.023 152ZM104.023 2.47675e-06C86.0674 -0.00391561 68.4169 4.64088 52.7892 13.4823C37.1616 22.3237 24.0892 35.0605 14.8444 50.453C5.59967 65.8455 0.497516 83.3692 0.0345794 101.319C-0.428357 119.268 3.76369 137.031 12.2027 152.88L0.8527 186.93C-0.0874533 189.749 -0.223892 192.774 0.458678 195.667C1.14125 198.559 2.61585 201.204 4.71721 203.305C6.81857 205.407 9.46365 206.881 12.356 207.564C15.2483 208.247 18.2736 208.11 21.0927 207.17L55.1427 195.82C69.0904 203.239 84.5448 207.382 100.333 207.936C116.121 208.49 131.828 205.44 146.261 199.017C160.695 192.595 173.475 182.968 183.633 170.869C193.79 158.769 201.058 144.515 204.884 129.187C208.71 113.86 208.994 97.862 205.714 82.4084C202.434 66.9547 195.677 52.4514 185.955 39.9992C176.233 27.547 163.802 17.4732 149.606 10.5425C135.409 3.61189 119.821 0.0064823 104.023 2.47675e-06ZM104.023 192C88.5525 192.011 73.3537 187.937 59.9627 180.19C58.9823 179.621 57.8922 179.268 56.7647 179.152C55.6372 179.037 54.4981 179.162 53.4227 179.52L16.0227 192L28.4927 154.6C28.8522 153.525 28.9792 152.387 28.8654 151.259C28.7516 150.132 28.3996 149.041 27.8327 148.06C18.1324 131.289 14.2378 111.786 16.753 92.5756C19.2682 73.3654 28.0526 55.5222 41.7436 41.8139C55.4345 28.1057 73.2666 19.2987 92.4736 16.7592C111.681 14.2198 131.189 18.0897 147.972 27.7688C164.755 37.4479 177.875 52.3951 185.296 70.2915C192.718 88.188 194.025 108.033 189.017 126.749C184.009 145.464 172.964 162.004 157.596 173.802C142.228 185.6 123.397 191.997 104.023 192Z" fill="white"/>
</svg>
