<svg width="71" height="40" viewBox="0 0 71 40" fill="none" xmlns="http://www.w3.org/2000/svg">
<g filter="url(#filter0_d_168_7)">
<path d="M43.371 10.8441C41.0323 8.44123 37.8468 7.11548 34.5806 7.11548C27.7258 7.11548 22.121 12.8328 22.121 19.8758C22.121 22.1544 22.6855 24.3088 23.7742 26.2974L22.896 29.5579C22.4975 31.0375 22.2983 31.7773 22.7039 32.1859C23.1096 32.5945 23.8508 32.4007 25.3333 32.0129L28.6532 31.1447C30.4677 32.139 32.5242 32.719 34.621 32.719C41.4355 32.6776 47 26.9603 47 19.8758C47 16.4786 45.7097 13.2885 43.371 10.8441ZM34.5403 30.5232C32.7258 30.5232 30.8306 29.9846 29.2581 28.9903C29.2211 28.9675 29.2026 28.9562 29.1844 28.946C28.9704 28.8261 28.7198 28.789 28.4803 28.8418C28.4599 28.8463 28.4389 28.8519 28.3969 28.863L28.0834 28.946C26.8044 29.2847 26.165 29.454 25.7774 29.1635C25.6978 29.1038 25.6275 29.0326 25.5689 28.9521C25.2837 28.5606 25.4618 27.9235 25.818 26.6494L25.9031 26.3451C25.918 26.2919 25.9254 26.2653 25.9312 26.2393C25.9821 26.011 25.9514 25.7721 25.8443 25.5641C25.8321 25.5404 25.8182 25.5165 25.7903 25.4688C24.7823 23.7702 24.2177 21.7816 24.2177 19.7929C24.2177 13.9514 28.8145 9.22839 34.5403 9.22839C37.2823 9.22839 39.8629 10.347 41.7984 12.3356C43.7339 14.3242 44.8226 17.0172 44.8226 19.8758C44.9032 25.8002 40.2258 30.5232 34.5403 30.5232ZM40.2258 22.5687C39.9032 22.403 38.4113 21.6158 38.0484 21.5744C37.7661 21.4501 37.5242 21.4087 37.3629 21.7401C37.2016 22.0716 36.5565 22.7344 36.3952 22.983C36.2339 23.1487 36.0726 23.2316 35.7097 23.0245C35.3871 22.8587 34.4194 22.5687 33.2097 21.4087C32.2823 20.5801 31.6371 19.5444 31.5161 19.1715C31.3548 18.8401 31.4758 18.7158 31.6774 18.5086C31.8387 18.3429 32 18.1772 32.121 17.9286C32.2823 17.7629 32.2823 17.5972 32.4435 17.39C32.6048 17.2243 32.4839 16.9757 32.4032 16.81C32.2823 16.6443 31.7177 15.07 31.4355 14.4071C31.1935 13.7442 30.9113 13.8685 30.75 13.8685C30.5887 13.8685 30.3468 13.8685 30.1855 13.8685C30.0242 13.8685 29.621 13.9099 29.379 14.2828C29.0968 14.6142 28.2903 15.4014 28.2903 16.9757C28.2903 18.5501 29.379 20.0001 29.5806 20.2901C29.7419 20.4558 31.7984 23.7288 34.8629 25.1374C35.5887 25.4688 36.1532 25.676 36.6371 25.8417C37.3629 26.0902 38.0484 26.0074 38.5726 25.966C39.1774 25.9245 40.3871 25.2202 40.6694 24.4331C40.9113 23.7288 40.9113 23.0245 40.8306 22.9002C40.75 22.8173 40.5081 22.693 40.2258 22.5687Z" fill="white"/>
</g>
<defs>
<filter id="filter0_d_168_7" x="0.12085" y="-18.8845" width="84.8792" height="85.6035" filterUnits="userSpaceOnUse" color-interpolation-filters="sRGB">
<feFlood flood-opacity="0" result="BackgroundImageFix"/>
<feColorMatrix in="SourceAlpha" type="matrix" values="0 0 0 0 0 0 0 0 0 0 0 0 0 0 0 0 0 0 127 0" result="hardAlpha"/>
<feOffset dx="8" dy="4"/>
<feGaussianBlur stdDeviation="15"/>
<feComposite in2="hardAlpha" operator="out"/>
<feColorMatrix type="matrix" values="0 0 0 0 0 0 0 0 0 0 0 0 0 0 0 0 0 0 0.15 0"/>
<feBlend mode="normal" in2="BackgroundImageFix" result="effect1_dropShadow_168_7"/>
<feBlend mode="normal" in="SourceGraphic" in2="effect1_dropShadow_168_7" result="shape"/>
</filter>
</defs>
</svg>
