<svg width="557" height="590" viewBox="0 0 557 590" fill="none" xmlns="http://www.w3.org/2000/svg">
<g filter="url(#filter0_d_81_23)">
<path d="M408.502 145.102C458.241 191.524 512.675 239.641 517.98 293.273C523.423 347.047 479.497 406.343 429.74 439.604C379.982 472.864 324.374 480.074 257.49 491.824C190.745 503.707 112.851 520.264 67.7637 487.01C22.6768 453.757 10.3033 370.68 38.434 317.629C66.5646 264.579 135.275 241.622 180.393 195.059C225.511 148.644 247.006 78.7356 280.316 66.2764C313.626 53.6833 358.744 98.6864 408.502 145.102Z" fill="#F2F2F2"/>
<path d="M478.078 47.1761H326.96V169.197H478.078V47.1761Z" fill="#D7E0FF"/>
<path d="M452.798 70.1192H408.546V154.729H452.798V70.1192Z" fill="#EAF0FF"/>
<path d="M393.975 88.731C393.976 92.5808 392.907 96.3446 390.902 99.5461C388.897 102.748 386.047 105.243 382.712 106.717C379.378 108.191 375.708 108.577 372.167 107.826C368.626 107.075 365.374 105.222 362.821 102.499C360.269 99.7773 358.531 96.3088 357.827 92.533C357.123 88.7571 357.485 84.8433 358.867 81.2868C360.249 77.7304 362.589 74.6909 365.591 72.5529C368.593 70.4148 372.122 69.2744 375.732 69.2757C380.57 69.2757 385.211 71.3254 388.632 74.974C392.053 78.6226 393.975 83.5712 393.975 88.731Z" fill="#FB5D64"/>
<path d="M479.905 296.474C479.905 305.889 477.287 315.094 472.382 322.923C467.477 330.752 460.505 336.854 452.348 340.457C444.191 344.06 435.215 345.003 426.555 343.166C417.896 341.329 409.941 336.795 403.698 330.137C397.455 323.479 393.203 314.996 391.481 305.761C389.758 296.526 390.642 286.954 394.021 278.255C397.4 269.556 403.122 262.121 410.463 256.889C417.804 251.658 426.435 248.866 435.264 248.866C447.104 248.866 458.458 253.882 466.83 262.81C475.202 271.738 479.905 283.847 479.905 296.474Z" fill="white"/>
<path d="M507.559 208.054H411.905V310.064H507.559V208.054Z" stroke="#B2C3FB" stroke-width="3.1491" stroke-linecap="round" stroke-linejoin="round"/>
<path d="M255.067 553.999H492.417" stroke="#1B3C87" stroke-width="3.87339" stroke-linecap="round" stroke-linejoin="round"/>
<path d="M24.353 553.999H199.245" stroke="#1B3C87" stroke-width="3.87339" stroke-linecap="round" stroke-linejoin="round"/>
<path d="M297.291 209.882L296.318 214.876L289.789 217.045C289.789 217.045 286.556 206.293 286.111 203.863C282.972 206.36 264.879 211.77 261.759 212.252C261.326 209.661 261.326 187.206 278.879 187.206C294.341 187.206 301.271 203.723 301.679 205.657C300.775 206.22 297.285 207.599 297.285 209.882" fill="#EECB55"/>
<path d="M301.629 253.111C297.706 253.111 269.23 283.753 268.062 290.167L258.89 340.774L306.394 326.6L309.182 262.142L302.414 253.091L301.629 253.111Z" fill="#46DBC9"/>
<path d="M242.951 342.086C242.869 338.557 270.14 246.744 273.216 243.624C274.226 242.536 275.44 241.688 276.778 241.135C278.116 240.581 279.548 240.334 280.982 240.41C282.338 240.477 288.854 243.758 290.229 247.219C287.881 253.151 282.225 256.445 282.225 256.445L271.22 328.964L242.951 342.086Z" fill="white"/>
<path d="M276.185 397.145L315.597 449.171L296.481 469.664L238.625 415.723L252.311 395.638L276.185 397.145Z" fill="#3C3744"/>
<path d="M265.802 490.271C260.491 485.122 198.184 402.353 198.184 392.11C198.184 369.274 222.479 361.18 229.109 359.399C238.243 358.515 278.759 354.9 285.131 355.181C289.727 360.49 343.088 372.742 350.822 371.684C350.822 375.815 344.67 404.696 301.027 404.696C296.456 404.696 262.048 403.23 261.408 403.23C261.408 411.82 283.461 467.729 285.565 471.518" fill="#3C3744"/>
<path d="M322.264 238.141C357.589 238.141 365.235 306.101 365.235 325.389C365.235 349.979 355.882 369.629 351.424 371.47C338.8 376.645 292.457 359.693 289.519 351.666C275.193 312.568 298.773 238.141 322.289 238.141" fill="#46DBC9"/>
<path d="M292.106 191.618C295.037 194.428 297.459 197.789 299.25 201.534C299.56 202.177 299.849 202.819 300.117 203.462" stroke="#1B3C87" stroke-width="3.87339" stroke-linecap="round" stroke-linejoin="round"/>
<path d="M262.889 221.491C256.291 207.82 259.085 192.274 269.129 186.765C272.395 185.004 276.106 184.41 279.713 185.071" stroke="#1B3C87" stroke-width="3.87339" stroke-linecap="round" stroke-linejoin="round"/>
<path d="M297.762 232.323C296.417 233.934 294.807 235.269 293.01 236.26C286.155 240.022 277.692 238.134 270.918 232.209" stroke="#1B3C87" stroke-width="3.87339" stroke-linecap="round" stroke-linejoin="round"/>
<path d="M295.05 207.485C295.454 206.402 296.126 205.456 296.995 204.75C297.864 204.043 298.898 203.602 299.984 203.474C301.07 203.346 302.169 203.535 303.162 204.023C304.155 204.51 305.005 205.276 305.62 206.239C306.236 207.202 306.594 208.326 306.656 209.49C306.719 210.653 306.483 211.813 305.974 212.845C305.465 213.876 304.702 214.741 303.768 215.345C302.833 215.95 301.762 216.272 300.669 216.276C299.76 216.27 298.864 216.041 298.051 215.607" stroke="#1B3C87" stroke-width="3.87339" stroke-linecap="round" stroke-linejoin="round"/>
<path d="M300.135 254.417C299.25 251.036 296.067 240.618 292.093 236.722" stroke="#1B3C87" stroke-width="3.87339" stroke-linecap="round" stroke-linejoin="round"/>
<path d="M303.305 217.882C304.53 222.274 315.597 238.108 318.322 240.304C318.159 242.212 314.637 245.9 310.676 249.007" stroke="#1B3C87" stroke-width="3.87339" stroke-linecap="round" stroke-linejoin="round"/>
<path d="M289.162 214.127L294.077 212.5L295.05 207.498" stroke="#1B3C87" stroke-width="3.87339" stroke-linecap="round" stroke-linejoin="round"/>
<path d="M275.941 204.968C279.594 203.669 282.715 202.377 283.87 201.466C284.19 203.234 285.992 209.407 286.946 212.634" stroke="#1B3C87" stroke-width="3.87339" stroke-linecap="round" stroke-linejoin="round"/>
<path d="M259.512 209.856C260.717 209.668 264.139 208.751 268.075 207.552" stroke="#1B3C87" stroke-width="3.87339" stroke-linecap="round" stroke-linejoin="round"/>
<path d="M295.49 355.522C290.53 352.885 287.084 350.321 286.349 348.312C281.955 336.261 281.12 320.83 282.802 305.264" stroke="#1B3C87" stroke-width="3.87339" stroke-linecap="round" stroke-linejoin="round"/>
<path d="M357.2 283.265C360.879 298.998 362.09 314.362 362.09 322.035C362.09 346.632 352.736 366.281 348.279 368.116C342.359 370.546 329.038 368.116 316.263 364.005" stroke="#1B3C87" stroke-width="3.87339" stroke-linecap="round" stroke-linejoin="round"/>
<path d="M314.429 235.751C315.927 235.127 317.518 234.8 319.125 234.787C328.435 234.787 335.824 239.513 341.656 246.838" stroke="#1B3C87" stroke-width="3.87339" stroke-linecap="round" stroke-linejoin="round"/>
<path d="M289.846 272.768C292.253 265.307 295.41 258.146 299.263 251.41" stroke="#1B3C87" stroke-width="3.87339" stroke-linecap="round" stroke-linejoin="round"/>
<path d="M267.88 245.251C268.922 242.439 269.688 240.665 270.071 240.27C271.081 239.183 272.295 238.334 273.633 237.781C274.971 237.227 276.403 236.98 277.837 237.056C279.193 237.123 285.71 240.404 287.084 243.865" stroke="#1B3C87" stroke-width="3.87339" stroke-linecap="round" stroke-linejoin="round"/>
<path d="M247.496 310.064C252.123 294.291 257.999 275.003 262.632 260.69" stroke="#1B3C87" stroke-width="3.87339" stroke-linecap="round" stroke-linejoin="round"/>
<path d="M239.806 338.257C239.806 337.587 240.729 333.885 242.279 328.268" stroke="#1B3C87" stroke-width="3.87339" stroke-linecap="round" stroke-linejoin="round"/>
<path d="M278.891 243.115C280.234 243.343 283.48 245.453 285.169 247.562" stroke="#1B3C87" stroke-width="3.87339" stroke-linecap="round" stroke-linejoin="round"/>
<path d="M275.131 248.197C276.468 248.424 279.72 250.534 281.409 252.643" stroke="#1B3C87" stroke-width="3.87339" stroke-linecap="round" stroke-linejoin="round"/>
<path d="M268.081 325.221C268.187 322.008 275.614 266.588 278.897 255.695" stroke="#1B3C87" stroke-width="3.87339" stroke-linecap="round" stroke-linejoin="round"/>
<path d="M284.033 262.411C288.603 257.195 294.14 251.591 298.585 249.322" stroke="#1B3C87" stroke-width="3.87339" stroke-linecap="round" stroke-linejoin="round"/>
<path d="M139.902 290.448L168.779 340.499" stroke="#1B3C87" stroke-width="3.87339" stroke-linecap="round" stroke-linejoin="round"/>
<path d="M347.677 368.33C347.677 372.46 341.531 401.342 297.882 401.342C293.311 401.342 258.903 399.876 258.263 399.876C258.263 408.466 280.316 464.375 282.419 468.164" stroke="#1B3C87" stroke-width="3.87339" stroke-linecap="round" stroke-linejoin="round"/>
<path d="M225.963 356.058C219.554 358.615 195.033 365.933 195.033 388.769C195.033 399.012 257.327 481.781 262.651 486.93" stroke="#1B3C87" stroke-width="3.87339" stroke-linecap="round" stroke-linejoin="round"/>
<path d="M259.543 490.625L288.113 471.21" stroke="#1B3C87" stroke-width="3.87339" stroke-linecap="round" stroke-linejoin="round"/>
<path d="M262.657 495.981L292.118 476.948" stroke="#1B3C87" stroke-width="3.87339" stroke-linecap="round" stroke-linejoin="round"/>
<path d="M274.44 448.668L292.747 466.31" stroke="#1B3C87" stroke-width="3.87339" stroke-linecap="round" stroke-linejoin="round"/>
<path d="M285.182 409.731L312.427 445.823" stroke="#1B3C87" stroke-width="3.87339" stroke-linecap="round" stroke-linejoin="round"/>
<path d="M315.585 443.232L291.51 468.184" stroke="#1B3C87" stroke-width="3.87339" stroke-linecap="round" stroke-linejoin="round"/>
<path d="M318.623 448.046L294.548 472.997" stroke="#1B3C87" stroke-width="3.87339" stroke-linecap="round" stroke-linejoin="round"/>
<path d="M126.844 531.812V554" stroke="#1B3C87" stroke-width="3.87339" stroke-linecap="round" stroke-linejoin="round"/>
<path d="M126.844 356.058V490.625" stroke="#1B3C87" stroke-width="3.87339" stroke-linecap="round" stroke-linejoin="round"/>
<path d="M222.919 356.058V553.999" stroke="#1B3C87" stroke-width="3.87339" stroke-linecap="round" stroke-linejoin="round"/>
<path d="M334.644 254.584C351.462 260.823 342.899 299.238 338.166 300.537C333.432 301.836 304.894 289.792 304.002 286.552C303.111 283.311 315.001 247.286 334.644 254.584Z" fill="#46DBC9"/>
<path d="M313.293 256.894C318.158 251.692 324.311 248.558 331.499 251.23C348.317 257.469 339.754 295.885 335.014 297.183C330.274 298.482 301.742 286.438 300.851 283.198C300.637 282.435 301.133 279.85 302.282 276.423" stroke="#1B3C87" stroke-width="3.87339" stroke-linecap="round" stroke-linejoin="round"/>
<path d="M305.967 288.44C304.598 290.582 297.021 316.712 297.021 316.712C297.021 316.712 243.491 341.329 240.823 342.601C239.85 341.182 236.648 338.584 230.15 338.584C218.254 338.584 216.195 347 216.195 348.807C216.195 350.615 234.281 354.632 239.134 354.505C243.987 354.378 311.843 343.371 314.266 342.079C316.689 340.787 332.93 299.901 332.93 299.901C328.536 299.654 308.277 292.965 305.979 288.446" fill="white"/>
<path d="M272.218 345.748C255.092 348.54 238.318 351.104 235.976 351.158C231.124 351.291 213.037 347.274 213.037 345.46C213.037 343.646 215.096 335.237 226.993 335.237C233.503 335.237 236.705 337.828 237.665 339.254C240.333 337.962 293.864 313.365 293.864 313.365C293.864 313.365 301.441 287.255 302.809 285.092" stroke="#1B3C87" stroke-width="3.87339" stroke-linecap="round" stroke-linejoin="round"/>
<path d="M329.772 296.541C329.772 296.541 313.538 337.44 311.108 338.718C310.418 339.087 304.435 340.245 296.117 341.704" stroke="#1B3C87" stroke-width="3.87339" stroke-linecap="round" stroke-linejoin="round"/>
<path d="M386.586 402.828H282.984V413.078H386.586V402.828Z" fill="#8088DC"/>
<path d="M344.67 409.731H279.833V399.481H383.416V409.731H365.21" stroke="#1B3C87" stroke-width="3.87339" stroke-linecap="round" stroke-linejoin="round"/>
<path d="M256.391 350.481H98.7631V358.917H256.391V350.481Z" fill="#8088DC"/>
<path d="M139.902 347.609H253.699V356.058H96.0704V347.622H120.328" stroke="#1B3C87" stroke-width="3.87339" stroke-linecap="round" stroke-linejoin="round"/>
<path d="M226.999 343.385H171.485V350.481H226.999V343.385Z" fill="#FB5D64"/>
<path d="M224.306 340.513H168.792V347.609H224.306V340.513Z" stroke="#1B3C87" stroke-width="3.87339" stroke-linecap="round" stroke-linejoin="round"/>
<path d="M268.068 497.876L286.274 519.105L276.317 548.563L306.859 523.236L289.155 484.292" fill="white"/>
<path d="M296.601 504.231L285.997 480.918" stroke="#1B3C87" stroke-width="3.87339" stroke-linecap="round" stroke-linejoin="round"/>
<path d="M264.93 494.522L283.135 515.751L273.185 545.209L303.72 519.882L300.606 513.053" stroke="#1B3C87" stroke-width="3.87339" stroke-linecap="round" stroke-linejoin="round"/>
<path d="M317.951 455.35L328.09 473.707L335.089 477.591L321.768 510.583L318.73 489.829L301.152 472.737" fill="white"/>
<path d="M302.551 473.754L298.063 469.382" stroke="#1B3C87" stroke-width="3.87339" stroke-linecap="round" stroke-linejoin="round"/>
<path d="M314.806 452.002L324.945 470.353L331.945 474.243L318.623 507.235L315.585 486.481L311.818 482.812" stroke="#1B3C87" stroke-width="3.87339" stroke-linecap="round" stroke-linejoin="round"/>
<path d="M306.589 409.731V553.002" stroke="#1B3C87" stroke-width="3.87339" stroke-linecap="round" stroke-linejoin="round"/>
<path d="M356.692 464.415V553.022" stroke="#1B3C87" stroke-width="3.87339" stroke-linecap="round" stroke-linejoin="round"/>
<path d="M356.692 409.731V439.912" stroke="#1B3C87" stroke-width="3.87339" stroke-linecap="round" stroke-linejoin="round"/>
<path d="M276.317 212.459C276.625 213.598 277.34 214.374 277.918 214.193C278.495 214.013 278.721 212.955 278.413 211.823C278.106 210.692 277.397 209.909 276.813 210.109C276.229 210.31 276.016 211.348 276.317 212.48" fill="#1B3C87"/>
<path d="M269.349 224.972C269.273 225.394 269.151 225.806 268.985 226.197" stroke="#1B3C87" stroke-width="3.29606" stroke-linecap="round" stroke-linejoin="round"/>
<path d="M268.683 218.337C269.182 219.815 269.457 221.367 269.499 222.937" stroke="#1B3C87" stroke-width="3.29606" stroke-linecap="round" stroke-linejoin="round"/>
<path d="M285.859 224.329C286.041 225.829 285.056 228.159 283.154 229.518" stroke="#1B3C87" stroke-width="3.29606" stroke-linecap="round" stroke-linejoin="round"/>
<path d="M201.737 196.331H36.3623V249.542H201.737V196.331Z" fill="#D7E0FF"/>
<path d="M187.512 222.669C187.513 225.741 186.66 228.745 185.061 231.3C183.461 233.855 181.187 235.847 178.526 237.024C175.864 238.2 172.936 238.509 170.11 237.91C167.284 237.312 164.689 235.833 162.651 233.661C160.614 231.489 159.226 228.722 158.663 225.708C158.101 222.695 158.389 219.572 159.491 216.733C160.593 213.895 162.46 211.469 164.855 209.762C167.251 208.055 170.067 207.144 172.948 207.144C176.809 207.144 180.513 208.779 183.244 211.691C185.975 214.602 187.51 218.551 187.512 222.669Z" fill="#B2C3FB"/>
<path d="M145.439 213.665H63.2375" stroke="#EAF0FF" stroke-width="3.87339" stroke-linecap="round" stroke-linejoin="round"/>
<path d="M145.438 231.68H101.883" stroke="#EAF0FF" stroke-width="3.87339" stroke-linecap="round" stroke-linejoin="round"/>
<path d="M258.268 26H159.984V159.001H258.268V26Z" fill="#EAF0FF"/>
<path d="M198.184 73.6877L226.999 145.919L287.486 101.137L198.184 73.6877Z" stroke="#B2C3FB" stroke-width="3.1491" stroke-linecap="round" stroke-linejoin="round"/>
<path d="M112.43 92.8618H55.8359V118.068H112.43V92.8618Z" fill="#EAF0FF"/>
<path d="M86.0948 124.02H29.5007V149.226H86.0948V124.02Z" fill="#EAF0FF"/>
</g>
<defs>
<filter id="filter0_d_81_23" x="0.416382" y="0" width="556.021" height="589.937" filterUnits="userSpaceOnUse" color-interpolation-filters="sRGB">
<feFlood flood-opacity="0" result="BackgroundImageFix"/>
<feColorMatrix in="SourceAlpha" type="matrix" values="0 0 0 0 0 0 0 0 0 0 0 0 0 0 0 0 0 0 127 0" result="hardAlpha"/>
<feOffset dx="8" dy="4"/>
<feGaussianBlur stdDeviation="15"/>
<feComposite in2="hardAlpha" operator="out"/>
<feColorMatrix type="matrix" values="0 0 0 0 0 0 0 0 0 0 0 0 0 0 0 0 0 0 0.15 0"/>
<feBlend mode="normal" in2="BackgroundImageFix" result="effect1_dropShadow_81_23"/>
<feBlend mode="normal" in="SourceGraphic" in2="effect1_dropShadow_81_23" result="shape"/>
</filter>
</defs>
</svg>
