<svg width="500" height="532" viewBox="0 0 500 532" fill="none" xmlns="http://www.w3.org/2000/svg">
<path fill-rule="evenodd" clip-rule="evenodd" d="M373.005 374.486C373.005 339.363 401.433 310.879 436.502 310.879C471.571 310.879 500 339.357 500 374.486C500 409.615 471.571 438.098 436.502 438.098C401.433 438.098 373.005 409.614 373.005 374.486Z" fill="#F3F6FF"/>
<path fill-rule="evenodd" clip-rule="evenodd" d="M78.9226 274.05C78.9226 185.975 150.2 114.574 238.125 114.574C326.051 114.574 397.328 185.973 397.328 274.05C397.328 362.128 326.051 433.526 238.125 433.526C150.2 433.526 78.9226 362.126 78.9226 274.05Z" fill="#46DBC9" fill-opacity="0.25"/>
<path fill-rule="evenodd" clip-rule="evenodd" d="M77.4861 327.915C81.966 323.771 97.6843 309.32 100.938 307.847C104.191 306.373 141.919 348.534 138.193 351.551C134.467 354.567 114.745 372.761 107.328 377.387C92.5133 361.235 82.2122 342.686 77.4861 327.915Z" fill="white"/>
<path d="M75.9775 324.248C80.4575 320.105 95.6197 306.096 98.8775 304.623C102.135 303.149 140.135 348.43 136.409 351.446C132.682 354.461 112.904 373.8 107.059 377.507" stroke="#1B3C87" stroke-width="3.75781" stroke-linecap="round" stroke-linejoin="round"/>
<path fill-rule="evenodd" clip-rule="evenodd" d="M175.221 280.293C196.84 313.23 143.746 354.564 135.619 356.938C127.492 359.313 92.4996 311.291 95.0335 304.966C97.5673 298.642 149.115 240.52 175.221 280.293Z" fill="#46DBC9"/>
<path d="M119.812 274.06C136.977 262.132 158.341 255.249 172.364 276.613C193.983 309.549 140.889 350.883 132.762 353.258C124.635 355.632 89.6422 307.604 92.1772 301.286C92.6685 300.063 94.997 296.895 98.6236 292.874" stroke="#1B3C87" stroke-width="3.75781" stroke-linecap="round" stroke-linejoin="round"/>
<path fill-rule="evenodd" clip-rule="evenodd" d="M218.659 252.357C194.309 252.211 170.349 256.904 158.54 266.094C139.363 281.021 126.608 373.292 132.108 400.751C158.452 420.093 190.95 431.523 226.116 431.523C253.877 431.523 279.974 424.396 302.697 411.883C306.72 377.598 296.804 279.584 281.122 267.66C267.752 257.493 243.01 252.504 218.659 252.357Z" fill="#46DBC9"/>
<path d="M136.858 305.423C141.472 285.133 147.649 268.213 154.968 262.518C178.587 244.138 250.808 243.747 277.55 264.082C294.186 276.735 305.072 386.483 298.241 413.856" stroke="#1B3C87" stroke-width="3.75781" stroke-linecap="round" stroke-linejoin="round"/>
<path d="M128.617 397.627C127.514 390.641 127.445 379.312 128.277 366.08" stroke="#1B3C87" stroke-width="3.75781" stroke-linecap="round" stroke-linejoin="round"/>
<path d="M34.0361 2L106.772 29.5076L75.557 112.312L2.83105 84.8058L34.0361 2Z" stroke="#B6C6FC" stroke-width="3.75781" stroke-linecap="round" stroke-linejoin="round"/>
<path d="M346.008 389.244L361.46 530L460.932 360.222L346.008 389.244Z" stroke="#B6C6FC" stroke-width="3.75781" stroke-linecap="round" stroke-linejoin="round"/>
<path d="M31.8607 119.067C31.8607 95.4237 50.9934 76.2593 74.5946 76.2593C98.1959 76.2593 117.325 95.4248 117.325 119.067C117.325 142.708 98.1925 161.874 74.5912 161.874C50.99 161.874 31.8607 142.708 31.8607 119.067Z" stroke="#B6C6FC" stroke-width="3.75781" stroke-linecap="round" stroke-linejoin="round"/>
<path fill-rule="evenodd" clip-rule="evenodd" d="M320.989 401.542C317.596 398.143 294.209 366.191 291.574 363.183C288.94 360.176 338.94 318.643 342.015 322.274C345.091 325.906 357.419 343.189 363.168 352.692C358.548 361.032 333.005 393.327 320.989 401.542Z" fill="white"/>
<path d="M322.124 399.011C319.287 395.136 293.94 360.158 291.304 357.15C288.668 354.141 338.671 312.609 341.746 316.241C344.822 319.872 359.549 340.063 364.621 349.943" stroke="#1B3C87" stroke-width="3.75781" stroke-linecap="round" stroke-linejoin="round"/>
<path fill-rule="evenodd" clip-rule="evenodd" d="M267.258 262.754C292.507 245.399 353.448 305.003 353.296 322.771C353.144 340.538 298.96 372.823 289.935 368.161C279.986 363.026 228.515 289.368 267.258 262.754Z" fill="#46DBC9"/>
<path d="M252.044 301.542C248.639 285.021 250.825 269.174 264.881 259.518C290.134 242.167 351.07 301.77 350.917 319.542C350.764 337.314 296.583 369.593 287.556 364.932C284.668 363.439 278.28 356.173 271.615 345.957" stroke="#1B3C87" stroke-width="3.75781" stroke-linecap="round" stroke-linejoin="round"/>
<path d="M66.9226 272.05C66.9226 183.975 138.2 112.574 226.125 112.574C314.051 112.574 385.328 183.973 385.328 272.05C385.328 360.128 314.051 431.526 226.125 431.526C138.2 431.526 66.9226 360.126 66.9226 272.05Z" stroke="#1B3C87" stroke-width="3.75781" stroke-linecap="round" stroke-linejoin="round"/>
<path fill-rule="evenodd" clip-rule="evenodd" d="M362.974 298.593C363.13 294.011 372.044 292.153 382.883 294.441C393.722 296.729 402.382 302.298 402.226 306.878C402.071 311.459 393.155 313.318 382.316 311.03C371.478 308.741 362.814 303.174 362.974 298.593Z" fill="white"/>
<path fill-rule="evenodd" clip-rule="evenodd" d="M366.188 281.066C366.345 276.486 375.258 274.626 386.097 276.914C396.936 279.202 405.598 284.771 405.441 289.352C405.284 293.932 396.37 295.792 385.531 293.504C374.692 291.216 366.038 285.647 366.188 281.066Z" fill="white"/>
<path fill-rule="evenodd" clip-rule="evenodd" d="M365.773 262.954C365.93 258.373 374.843 256.514 385.683 258.801C396.523 261.088 405.183 266.658 405.026 271.239C404.869 275.82 395.955 277.679 385.116 275.391C374.277 273.103 365.617 267.535 365.773 262.954Z" fill="white"/>
<path d="M370.228 256.306C373.79 255.647 378.558 255.788 383.772 256.888C394.611 259.176 403.271 264.745 403.115 269.326C403.009 272.419 398.911 274.271 392.921 274.441" stroke="#1B3C87" stroke-width="3.75781" stroke-linecap="round" stroke-linejoin="round"/>
<path d="M367.557 275.32C371.129 273.77 377.266 273.54 384.187 275.001C395.026 277.289 403.687 282.858 403.53 287.439C403.417 290.778 398.651 292.668 391.868 292.565" stroke="#1B3C87" stroke-width="3.75781" stroke-linecap="round" stroke-linejoin="round"/>
<path d="M369.782 291.64C372.978 291.385 376.832 291.655 380.968 292.528C391.807 294.816 400.467 300.383 400.311 304.965C400.213 307.827 396.694 309.626 391.423 310.017" stroke="#1B3C87" stroke-width="3.75781" stroke-linecap="round" stroke-linejoin="round"/>
<path fill-rule="evenodd" clip-rule="evenodd" d="M46.259 269.604C46.4156 265.023 55.3301 263.165 66.169 265.453C77.008 267.741 85.6682 273.308 85.5116 277.89C85.355 282.472 76.4417 284.33 65.6017 282.042C54.7616 279.753 46.1025 274.185 46.259 269.604Z" fill="white"/>
<path fill-rule="evenodd" clip-rule="evenodd" d="M49.4774 252.077C49.634 247.496 58.5485 245.638 69.3874 247.926C80.2263 250.214 88.8866 255.783 88.73 260.367C88.5734 264.951 79.6601 266.806 68.8212 264.518C57.9822 262.23 49.3208 256.659 49.4774 252.077Z" fill="white"/>
<path fill-rule="evenodd" clip-rule="evenodd" d="M49.062 233.964C49.2186 229.383 58.133 227.525 68.972 229.813C79.8109 232.101 88.4712 237.669 88.3146 242.25C88.158 246.831 79.2447 248.69 68.4057 246.401C57.5668 244.113 48.9065 238.542 49.062 233.964Z" fill="white"/>
<path d="M51.3053 238.296C47.9692 236.091 45.9573 233.626 46.0333 231.397C46.1899 226.817 55.1044 224.958 65.9433 227.246C70.7988 228.269 75.2163 229.954 78.6012 231.907" stroke="#1B3C87" stroke-width="3.75781" stroke-linecap="round" stroke-linejoin="round"/>
<path d="M55.8944 258.711C50.1458 256.045 46.3445 252.559 46.4489 249.51C46.6055 244.93 55.5199 243.071 66.3589 245.358C70.8751 246.312 75.0134 247.835 78.2928 249.618" stroke="#1B3C87" stroke-width="3.75781" stroke-linecap="round" stroke-linejoin="round"/>
<path d="M58.9101 278.553C49.8492 275.909 43.0919 271.086 43.2304 267.035C43.387 262.454 52.3014 260.595 63.1403 262.883C69.4801 264.222 75.0754 266.682 78.5954 269.411" stroke="#1B3C87" stroke-width="3.75781" stroke-linecap="round" stroke-linejoin="round"/>
<path fill-rule="evenodd" clip-rule="evenodd" d="M243.019 217.315C241.988 223.196 237.232 246.876 240.877 272.545C236.673 275.728 212.159 278.027 205.417 272.545C205.655 262.134 205.892 241.313 204.941 235.989C203.99 230.665 244.054 211.435 243.019 217.315Z" fill="white"/>
<path d="M202.664 269.13C202.901 258.719 203.139 237.899 202.187 232.574C201.235 227.25 241.297 208.022 240.266 213.9C239.236 219.778 234.479 243.461 238.124 269.13C236.221 270.568 230.158 271.827 223.464 272.267" stroke="#1B3C87" stroke-width="3.75781" stroke-linecap="round" stroke-linejoin="round"/>
<path fill-rule="evenodd" clip-rule="evenodd" d="M162.967 183.239C165.3 154.57 186.78 132.897 210.942 134.831C235.103 136.764 252.801 161.572 250.466 190.241C248.132 218.911 226.654 240.588 202.492 238.656C178.331 236.724 160.633 211.909 162.967 183.239Z" fill="white"/>
<path d="M225.594 228.821C218.123 233.925 209.383 236.559 200.262 235.829C189.01 234.929 179.156 229.067 172.083 220.166" stroke="#1B3C87" stroke-width="3.75781" stroke-linecap="round" stroke-linejoin="round"/>
<path d="M162.694 201.493C160.867 194.943 160.138 187.809 160.739 180.419C163.072 151.75 184.551 130.077 208.714 132.011C232.877 133.944 250.572 158.752 248.239 187.421C247.536 196.06 245.095 204.062 241.365 210.976" stroke="#1B3C87" stroke-width="3.75781" stroke-linecap="round" stroke-linejoin="round"/>
<path fill-rule="evenodd" clip-rule="evenodd" d="M205.445 172.769C205.779 169.67 207.185 167.281 208.585 167.432C209.985 167.583 210.849 170.219 210.514 173.317C210.179 176.414 208.773 178.805 207.374 178.652C205.975 178.5 205.11 175.866 205.445 172.769Z" fill="#1B3C87"/>
<path fill-rule="evenodd" clip-rule="evenodd" d="M172.917 170.758C173.251 167.659 174.657 165.27 176.057 165.421C177.457 165.572 178.321 168.208 177.986 171.305C177.651 174.403 176.245 176.793 174.846 176.641C173.447 176.489 172.582 173.855 172.917 170.758Z" fill="#1B3C87"/>
<path d="M186.192 175.365C185.081 180.161 182.002 185.642 178.326 188.55" stroke="#1B3C87" stroke-width="3.75781" stroke-linecap="round" stroke-linejoin="round"/>
<path d="M195.17 205.212C195.17 204.205 195.468 203.219 196.027 202.381C196.586 201.543 197.381 200.89 198.31 200.505C199.24 200.119 200.263 200.018 201.249 200.215C202.236 200.411 203.143 200.897 203.854 201.609C204.565 202.322 205.05 203.23 205.246 204.218C205.442 205.207 205.342 206.231 204.957 207.162C204.572 208.094 203.92 208.889 203.083 209.449C202.247 210.009 201.263 210.308 200.257 210.308C198.908 210.308 197.614 209.771 196.66 208.815C195.706 207.86 195.17 206.564 195.17 205.212Z" stroke="#1B3C87" stroke-width="3.75781" stroke-linecap="round" stroke-linejoin="round"/>
<path fill-rule="evenodd" clip-rule="evenodd" d="M237.711 191.059C234.639 190.84 225.822 178.238 234.867 169.576C230.429 165.245 204.323 145.67 172.957 157.81C168.883 153.659 157.76 136.968 167.361 129.772C176.962 122.575 180.972 131.278 182.216 134.737C179.315 125.605 180.948 101.041 205.364 100.769C229.78 100.498 256.031 171.958 254.97 184.782C253.909 197.606 253.856 199.339 237.711 191.059Z" fill="#FB5D64"/>
<path d="M236.651 134.001C245.888 153.18 251.983 173.699 251.461 180.011C250.399 192.835 250.346 194.567 234.201 186.288C231.131 186.069 222.313 173.467 231.358 164.805C227.847 161.378 210.765 148.404 188.247 149.155" stroke="#1B3C87" stroke-width="3.75781" stroke-linecap="round" stroke-linejoin="round"/>
<path d="M169.448 153.04C165.373 148.889 154.25 132.198 163.851 125.002C173.452 117.805 177.468 126.507 178.706 129.967C175.805 120.834 177.439 96.2711 201.854 95.9983C207.982 95.9301 214.231 100.385 220.131 107.297" stroke="#1B3C87" stroke-width="3.75781" stroke-linecap="round" stroke-linejoin="round"/>
<path fill-rule="evenodd" clip-rule="evenodd" d="M230.736 197.147C230.736 194.931 231.392 192.764 232.621 190.922C233.85 189.079 235.597 187.643 237.64 186.795C239.684 185.947 241.933 185.725 244.103 186.158C246.272 186.59 248.265 187.657 249.83 189.224C251.394 190.791 252.459 192.787 252.891 194.961C253.322 197.134 253.101 199.387 252.254 201.434C251.408 203.482 249.974 205.231 248.135 206.463C246.295 207.694 244.133 208.351 241.921 208.351C238.954 208.351 236.109 207.17 234.012 205.069C231.914 202.968 230.736 200.118 230.736 197.147Z" fill="white"/>
<path d="M236.232 185.451C237.963 184.654 239.868 184.312 241.767 184.459C243.666 184.605 245.496 185.236 247.084 186.289C248.672 187.343 249.965 188.786 250.841 190.48C251.716 192.175 252.145 194.065 252.087 195.973C252.028 197.88 251.485 199.74 250.508 201.378C249.53 203.016 248.152 204.377 246.502 205.331C244.853 206.286 242.988 206.803 241.083 206.833C239.179 206.863 237.298 206.405 235.62 205.503" stroke="#1B3C87" stroke-width="3.75781" stroke-linecap="round" stroke-linejoin="round"/>
</svg>
