<svg width="497" height="628" viewBox="0 0 497 628" fill="none" xmlns="http://www.w3.org/2000/svg">
<path d="M74.8549 409.679C74.3046 414.915 63.8872 490.451 61.7312 508.756C59.5752 527.06 45.5839 574.792 41.5891 581.412C45.7651 583.938 58.1443 590.684 58.1443 590.684C58.1443 590.684 95.8775 533.964 97.4184 528.563C98.9594 523.163 105.518 497.051 105.518 497.051L96.4926 404.625L74.8549 409.679Z" fill="#3B3744"/>
<path d="M331.995 114.127C370.233 145.987 399.724 187.396 398.423 227.031C397.122 266.665 365.118 304.809 337.485 339.568C309.852 374.326 286.505 405.547 251.809 426.694C217.112 447.841 171.15 458.572 133.663 445.567C96.1754 432.562 67.1439 395.928 48.724 357.083C30.3041 318.238 22.211 277.125 36.7268 247.451C51.2426 217.777 88.3542 199.448 119.335 166.407C150.315 133.367 175.242 85.3631 211.13 72.6484C247.018 59.9338 293.854 82.2744 331.995 114.127Z" fill="#46DBC9" fill-opacity="0.25"/>
<path d="M70.1026 313.93C67.5646 310.443 61.8088 295.423 61.8088 292.454C61.8088 289.486 79.2899 230.05 80.3906 224.997C81.4912 219.944 81.4588 205.65 80.3906 200.944C80.8567 199.188 82.0933 198.62 82.4171 199.681C83.2652 200.351 88.0887 203.174 88.0887 203.174C88.0887 203.174 99.3672 218.333 96.8487 221.756C94.7857 224.471 92.9805 227.363 91.4554 230.397C90.8468 234.218 81.9444 283.454 82.3912 286.612C82.8379 289.77 91.805 305.693 92.0381 306.824C90.1023 307.828 71.2421 315.098 70.1026 313.93Z" fill="white"/>
<path d="M69.177 253.23C73.3271 238.659 77.3089 224.807 77.801 222.47C78.8693 217.417 78.8693 203.123 77.801 198.418C78.2672 196.662 79.5038 196.093 79.8275 197.155" stroke="#1B3C87" stroke-width="3" stroke-linecap="round" stroke-linejoin="round"/>
<path d="M67.5125 311.404C64.9746 307.917 59.2188 292.897 59.2188 289.928C59.2188 288.81 61.7308 279.582 64.9098 268.276" stroke="#1B3C87" stroke-width="3" stroke-linecap="round" stroke-linejoin="round"/>
<path d="M356.799 8.35388e-05L49.6758 77.0405L120.136 344.372L427.259 267.331L356.799 8.35388e-05Z" fill="#EAF0FF"/>
<path d="M129.814 56.9327L49.6768 77.0347L120.137 344.366L200.274 324.264L129.814 56.9327Z" fill="#D8DFFF"/>
<path d="M99.9496 130.733C114.106 130.733 125.582 119.537 125.582 105.727C125.582 91.9162 114.106 80.7206 99.9496 80.7206C85.7932 80.7206 74.3171 91.9162 74.3171 105.727C74.3171 119.537 85.7932 130.733 99.9496 130.733Z" fill="#EAF0FF"/>
<path d="M140.321 135.85L80.0928 150.958L81.5809 156.604L141.809 141.496L140.321 135.85Z" fill="#EAF0FF"/>
<path d="M143.906 149.444L83.6777 164.552L85.1659 170.198L145.394 155.09L143.906 149.444Z" fill="#EAF0FF"/>
<path d="M213.856 174.252C217.789 174.252 220.977 171.141 220.977 167.304C220.977 163.467 217.789 160.356 213.856 160.356C209.922 160.356 206.734 163.467 206.734 167.304C206.734 171.141 209.922 174.252 213.856 174.252Z" fill="#B2C3FB"/>
<path d="M343.969 131.646L229.808 160.282L231.296 165.929L345.457 137.292L343.969 131.646Z" fill="#D8DFFF"/>
<path d="M318.074 33.3653L180.236 67.9414L203.523 156.293L341.361 121.717L318.074 33.3653Z" fill="white"/>
<path d="M246.791 299.232C250.724 299.232 253.913 296.121 253.913 292.284C253.913 288.447 250.724 285.336 246.791 285.336C242.858 285.336 239.669 288.447 239.669 292.284C239.669 296.121 242.858 299.232 246.791 299.232Z" fill="#B2C3FB"/>
<path d="M376.914 256.625L262.753 285.261L264.242 290.907L378.402 262.271L376.914 256.625Z" fill="#D8DFFF"/>
<path d="M351.011 158.344L213.173 192.92L236.46 281.272L374.298 246.696L351.011 158.344Z" fill="white"/>
<path d="M38.4231 586.3L32.0458 597.259L24.0627 603.259L45.8817 628H63.7836L52.1231 610.441L54.0913 594.997" fill="white"/>
<path d="M120.389 603.758L123.523 614.837L121.315 628H169.485L141.204 611.71L141.891 603.758" fill="white"/>
<path d="M61.0311 485.732C59.9046 494.31 58.9852 501.435 58.4931 505.597C56.3436 523.914 42.3458 571.653 38.3511 578.234C42.5271 580.761 54.9063 587.507 54.9063 587.507C54.9063 587.507 92.6395 530.786 94.1804 525.386C95.7213 519.986 102.28 493.874 102.28 493.874L93.2546 401.467L71.6169 406.52C71.345 409.141 68.5998 429.335 65.6604 451.157" stroke="#1B3C87" stroke-width="3" stroke-linecap="round" stroke-linejoin="round"/>
<path d="M112.303 596.122H144.229" stroke="#1B3C87" stroke-width="3" stroke-linecap="round" stroke-linejoin="round"/>
<path d="M112.303 601.232H144.229" stroke="#1B3C87" stroke-width="3" stroke-linecap="round" stroke-linejoin="round"/>
<path d="M161.017 625.474H166.896L138.615 609.184L139.302 601.232" stroke="#1B3C87" stroke-width="3" stroke-linecap="round" stroke-linejoin="round"/>
<path d="M117.8 601.232L120.934 612.311L118.726 625.474H146.974" stroke="#1B3C87" stroke-width="3" stroke-linecap="round" stroke-linejoin="round"/>
<path d="M34.2534 576.131L56.804 588.643" stroke="#1B3C87" stroke-width="3" stroke-linecap="round" stroke-linejoin="round"/>
<path d="M32.0132 581.651L54.5702 594.17" stroke="#1B3C87" stroke-width="3" stroke-linecap="round" stroke-linejoin="round"/>
<path d="M51.0741 610.239L49.5332 607.914L51.5014 592.471" stroke="#1B3C87" stroke-width="3" stroke-linecap="round" stroke-linejoin="round"/>
<path d="M31.5407 591.145L29.4559 594.732L21.4729 600.733L43.2919 625.473H61.1938L56.571 618.513" stroke="#1B3C87" stroke-width="3" stroke-linecap="round" stroke-linejoin="round"/>
<path d="M84.3979 414.258C84.3979 417.416 87.0913 454.96 96.311 484.684C102.403 513.069 120.072 599.28 120.072 599.28H142.539L134.452 406.697L84.3979 414.258Z" fill="#3B3744"/>
<path d="M105.518 541.12C111.397 569.594 116.835 596.122 116.835 596.122H139.302L131.215 403.539L81.1609 411.118C81.1609 414.276 83.8543 451.82 93.0739 481.545C94.4594 487.994 96.4406 497.424 98.6743 508.155" stroke="#1B3C87" stroke-width="3" stroke-linecap="round" stroke-linejoin="round"/>
<path d="M161.334 329.329C166.514 332.007 182.998 339.277 184.986 339.277C186.973 339.277 215.416 330.118 216.918 327.32C218.42 324.522 219.974 317.069 222.576 316.324C225.179 315.578 223.709 322.135 223.709 322.135C225.25 321.642 249.575 315.458 249.465 315.585C250.112 318.983 236.95 328.615 235.577 328.963C228.811 336.365 186.682 359.407 184.85 359.407C183.017 359.407 154.556 351.827 152.762 351.196C153.118 348.612 158.874 331.154 161.334 329.329Z" fill="white"/>
<path d="M91.158 224.738C92.7831 222.616 94.583 220.317 94.4988 217.038" stroke="#1B3C87" stroke-width="3" stroke-linecap="round" stroke-linejoin="round"/>
<path d="M89.0079 303.192C87.713 299.352 80.0278 286.871 79.8271 283.612C79.6329 280.454 87.2857 236.315 88.6712 229.513" stroke="#1B3C87" stroke-width="3" stroke-linecap="round" stroke-linejoin="round"/>
<path d="M92.4911 348.707C83.5369 352.497 63.356 321.092 67.7457 316.096C73.8835 309.211 91.1703 303.912 97.0945 306.142C100.086 310.14 107.719 342.296 92.4911 348.707Z" fill="#46DBC9"/>
<path d="M89.9013 346.181C80.9471 349.97 60.7662 318.566 65.1559 313.57C71.2937 306.685 88.5805 301.386 94.5046 303.615C97.4958 307.614 105.129 339.77 89.9013 346.181Z" stroke="#1B3C87" stroke-width="3" stroke-linecap="round" stroke-linejoin="round"/>
<path d="M173.74 355.371C177.67 356.262 180.861 356.874 181.936 356.874C185.296 356.874 224.719 334.666 232.664 326.619C240.31 322.293 245.121 317.461 246.875 313.74" stroke="#1B3C87" stroke-width="3" stroke-linecap="round" stroke-linejoin="round"/>
<path d="M151.157 349.402C152.555 349.92 155.799 350.854 159.697 351.89" stroke="#1B3C87" stroke-width="3" stroke-linecap="round" stroke-linejoin="round"/>
<path d="M199.929 331.331C206.98 328.805 213.616 326.108 214.328 324.794C215.856 321.996 217.384 314.543 219.987 313.797C222.59 313.052 221.12 319.608 221.12 319.608" stroke="#1B3C87" stroke-width="3" stroke-linecap="round" stroke-linejoin="round"/>
<path d="M158.745 326.802C163.924 329.481 180.408 336.751 182.396 336.751C183.605 336.555 184.796 336.266 185.957 335.885" stroke="#1B3C87" stroke-width="3" stroke-linecap="round" stroke-linejoin="round"/>
<path d="M110.775 311.132C140.616 311.132 142.908 368.907 134.647 413.689C126.612 416.847 81.1677 418.167 73.5925 410.998C70.8409 401.151 61.045 311.138 110.775 311.132Z" fill="#46DBC9"/>
<path d="M70.9568 348.713C75.1781 327.377 85.479 308.605 108.185 308.605C128.618 308.605 136.135 335.702 136.194 367.163" stroke="#1B3C87" stroke-width="3" stroke-linecap="round" stroke-linejoin="round"/>
<path d="M72.7702 409.678C72.127 409.357 71.5322 408.951 71.0027 408.472C70.0445 405.055 68.2446 391.993 68.3741 376.385" stroke="#1B3C87" stroke-width="3" stroke-linecap="round" stroke-linejoin="round"/>
<path d="M135.281 387.419C134.575 395.479 133.468 403.507 132.044 411.162C127.511 412.918 111.28 414.112 96.5247 413.562" stroke="#1B3C87" stroke-width="3" stroke-linecap="round" stroke-linejoin="round"/>
<path d="M115.786 323.663C118.577 313.822 159.664 318.301 161.043 325.242C162.882 334.868 155.766 352.56 149.797 355.914C144.287 355.693 111.034 340.414 115.786 323.663Z" fill="#46DBC9"/>
<path d="M156.097 320.158C157.45 320.947 158.298 321.813 158.479 322.716C160.318 332.342 153.202 350.034 147.233 353.388C145.472 353.318 134.614 348.619 129.344 345.922" stroke="#1B3C87" stroke-width="3" stroke-linecap="round" stroke-linejoin="round"/>
<path d="M112.763 325.242C112.671 323.86 112.817 322.472 113.196 321.137C114.958 314.934 131.908 314.416 144.559 316.621" stroke="#1B3C87" stroke-width="3" stroke-linecap="round" stroke-linejoin="round"/>
<path d="M112.977 317.657C112.977 320.227 96.2729 320.556 96.2729 317.657V294.539H112.977V317.657Z" fill="white"/>
<path d="M110.387 307.695V315.13" stroke="#1B3C87" stroke-width="3" stroke-linecap="round" stroke-linejoin="round"/>
<path d="M103.517 317.139C98.914 317.366 93.6826 316.753 93.6826 315.13V292.012H110.387V302.39" stroke="#1B3C87" stroke-width="3" stroke-linecap="round" stroke-linejoin="round"/>
<path d="M108.496 299.579C117.928 299.579 125.575 289.769 125.575 277.668C125.575 265.567 117.928 255.757 108.496 255.757C99.0628 255.757 91.416 265.567 91.416 277.668C91.416 289.769 99.0628 299.579 108.496 299.579Z" fill="white"/>
<path d="M117.664 291.785C114.679 295.069 110.795 297.053 106.554 297.053C97.1206 297.053 89.4678 287.244 89.4678 275.142C89.4678 263.04 97.1206 253.23 106.554 253.23C115.987 253.23 123.634 263.04 123.634 275.142C123.666 279.093 122.813 283.003 121.134 286.599" stroke="#1B3C87" stroke-width="3" stroke-linecap="round" stroke-linejoin="round"/>
<path d="M88.458 280.056C88.458 262.604 94.3951 245.897 100.378 245.897C106.36 245.897 103.064 254.178 103.064 254.178C105.551 249.327 113.236 241.829 116.596 241.829C119.956 241.829 120.772 246.882 117.328 252.037C118.825 250.409 120.636 249.086 122.658 248.143C124.68 247.201 126.873 246.656 129.111 246.541C132.996 246.541 133.501 251.039 133.501 255.466C133.501 263.292 116.667 275.306 114.77 277.377C114.621 279.948 112.426 300.861 107.085 300.861C101.744 300.861 88.458 299.579 88.458 280.056Z" fill="#ECC953"/>
<path d="M110.27 292.391C109.131 295.802 107.648 298.335 105.79 298.335C102.786 298.335 97.2696 297.93 93.0159 294.103" stroke="#1B3C87" stroke-width="3" stroke-linecap="round" stroke-linejoin="round"/>
<path d="M130.846 257.298C127.732 262.983 119.969 269.343 115.883 272.735" stroke="#1B3C87" stroke-width="3" stroke-linecap="round" stroke-linejoin="round"/>
<path d="M123.387 244.817C124.811 244.323 126.306 244.052 127.816 244.015C131.053 244.015 131.94 247.142 132.147 250.742" stroke="#1B3C87" stroke-width="3" stroke-linecap="round" stroke-linejoin="round"/>
<path d="M87.189 275.401C87.6422 258.738 93.3462 243.358 99.0826 243.358C105.058 243.358 101.769 251.639 101.769 251.639C104.256 246.788 111.941 239.291 115.301 239.291C118.661 239.291 119.477 244.344 116.033 249.498" stroke="#1B3C87" stroke-width="3" stroke-linecap="round" stroke-linejoin="round"/>
<path d="M115.547 285.38C118.547 285.38 120.979 283.008 120.979 280.081C120.979 277.154 118.547 274.782 115.547 274.782C112.547 274.782 110.115 277.154 110.115 280.081C110.115 283.008 112.547 285.38 115.547 285.38Z" fill="white"/>
<path d="M108.833 279.38C108.823 279.192 108.823 279.005 108.833 278.818C108.828 277.899 109.069 276.994 109.531 276.193C109.994 275.393 110.662 274.723 111.47 274.251C112.278 273.779 113.198 273.52 114.14 273.5C115.082 273.48 116.013 273.7 116.841 274.137" stroke="#1B3C87" stroke-width="3" stroke-linecap="round" stroke-linejoin="round"/>
<path d="M115.793 283.902C115.293 284.049 114.774 284.124 114.252 284.123C112.855 284.125 111.512 283.6 110.503 282.658" stroke="#1B3C87" stroke-width="3" stroke-linecap="round" stroke-linejoin="round"/>
<path d="M427.643 68.6942H391.878L409.76 98.9049L427.643 68.6942Z" stroke="#B6C6FC" stroke-width="3" stroke-linecap="round" stroke-linejoin="round"/>
<path d="M31.064 113.767L18.2625 105.721L2.00013 130.348L14.8017 138.394L31.064 113.767Z" stroke="#B6C6FC" stroke-width="3" stroke-linecap="round" stroke-linejoin="round"/>
<path d="M333.416 410.904L250.875 381.628L194.498 532.903L277.038 562.179L333.416 410.904Z" fill="#EAF0FF"/>
<path d="M246.791 399.238C255.073 399.238 261.786 392.688 261.786 384.609C261.786 376.53 255.073 369.981 246.791 369.981C238.51 369.981 231.796 376.53 231.796 384.609C231.796 392.688 238.51 399.238 246.791 399.238Z" stroke="#B6C6FC" stroke-width="3" stroke-linecap="round" stroke-linejoin="round"/>
<path d="M449.28 310.178L446.554 364.814L496.421 339.795L449.28 310.178Z" fill="#EAF0FF"/>
</svg>
