<svg width="533" height="456" viewBox="0 0 533 456" fill="none" xmlns="http://www.w3.org/2000/svg">
<path d="M415.354 90.3699C458.543 140.189 491.915 192.902 495.147 248.726C498.27 304.552 471.154 363.602 427.965 403.08C384.888 442.558 325.629 462.466 274.853 454.123C224.186 445.672 181.779 408.973 127.987 369.496C74.3053 330.018 9.13251 287.76 11.1407 247.615C13.038 207.358 82.118 169.103 135.909 119.172C189.7 69.3521 228.091 7.96643 273.734 0.738077C319.378 -6.49028 372.277 40.5494 415.354 90.3699Z" fill="#46DBC9" fill-opacity="0.25"/>
<path d="M58.1509 177.41L88.7221 144.495L119.293 111.581L132.614 154.42L145.935 197.263L102.04 187.338L58.1509 177.41Z" stroke="#B2C3FB" stroke-width="3" stroke-linecap="round" stroke-linejoin="round"/>
<path d="M455.27 107.066L438.165 169.136L494.404 158.277L455.27 107.066Z" stroke="#EAF0FF" stroke-width="3" stroke-linecap="round" stroke-linejoin="round"/>
<path d="M100.256 112.156H243.439V261.425H100.256V112.156Z" fill="#D7E0FF"/>
<path opacity="0.67" d="M152.489 95.0664H431.075V295.127H152.489V95.0664Z" fill="#EAF0FF"/>
<path d="M326.897 147.453C326.897 127.759 342.919 111.795 362.681 111.795C382.443 111.795 398.466 127.759 398.466 147.453C398.466 167.146 382.444 183.11 362.681 183.11C342.918 183.11 326.897 167.146 326.897 147.453Z" fill="#D7E0FF"/>
<path d="M264.098 323.497C264.098 303.391 280.456 287.091 300.633 287.091C320.81 287.091 337.166 303.391 337.166 323.497C337.166 343.603 320.81 359.901 300.634 359.901C280.458 359.901 264.098 343.603 264.098 323.497Z" stroke="#EAF0FF" stroke-width="3" stroke-linecap="round" stroke-linejoin="round"/>
<path d="M376.777 78.9932V106.59H376.95V136.051L356.294 114.042H296.897V78.9932H376.777Z" fill="white"/>
<path d="M195.967 126.159V153.756H195.793V183.216L216.451 161.209H275.849V126.159H195.967Z" fill="white"/>
<path d="M415.008 196.496C415.008 216.233 423.617 219.812 423.617 223.392C423.617 226.971 419.713 246.602 418.599 249.182C421.504 253.234 441.998 255.34 445.907 254.287C446.224 250.445 451.136 225.444 452.246 223.76C453.355 222.076 465.767 212.177 465.767 203.97C465.767 185.601 464.553 161.18 452.299 161.18C437.403 161.179 415.008 168.391 415.008 196.496Z" fill="white"/>
<path d="M476.84 255.222C467.258 255.458 446.553 259.157 446.553 259.157C446.434 269.237 449.192 376.069 449.609 392.14H508.739L529.686 270.924C529.686 268.862 529.278 266.82 528.486 264.915C527.695 263.01 526.534 261.279 525.071 259.82C523.607 258.362 521.87 257.206 519.958 256.417C518.046 255.628 515.997 255.222 513.928 255.222C513.928 255.222 488.478 255.589 478.597 255.222C478.066 255.204 477.478 255.205 476.84 255.222Z" fill="#3C3744"/>
<path d="M165.999 345.982C169.371 344.129 201.958 320.098 203.74 317.85C205.522 315.603 211.918 302.762 212.456 301.924C212.994 301.087 216.415 299.52 216.843 299.882C219.468 302.102 215.261 309.663 214.761 310.818C217.205 308.596 232.665 296.55 234.56 297.142C248.179 301.403 243.083 319.514 234.523 323.927C232.181 325.138 219.357 330.015 218.128 331.083C216.898 332.152 162.955 376.905 161.747 377.762C161.073 374.677 162.621 347.831 165.999 345.982Z" fill="white"/>
<path d="M361.281 283.194C358.959 286.618 353.088 295.16 350.766 298.494C325.79 265.749 299.931 246.786 293.143 214.472C286.571 210.304 286.948 225.177 291.885 236.31C284.177 241.224 276.877 246.152 279.12 249.796C287.708 263.728 290.292 259.344 293.5 259.631C296.708 259.918 322.408 312.413 329.812 320.67C335.268 326.757 339.508 333.872 356.374 341.103C358.187 325.722 369.554 289.301 371.875 286.536C369.79 285.05 363.602 279.77 361.281 283.194Z" fill="white"/>
<path d="M369.57 290.24C361.837 284.362 356.608 279.736 356.471 277.564C356.144 272.426 387.044 228.647 408.07 242.531C416.99 248.99 384.867 301.609 369.57 290.24Z" fill="#46DBC9"/>
<path d="M386.552 240.493C393.328 237.144 400.279 236.304 406.395 240.342" stroke="#1B3C87" stroke-width="3" stroke-linecap="round" stroke-linejoin="round"/>
<path d="M367.897 288.052C360.048 282.331 354.935 277.547 354.798 275.375C354.657 273.153 360.35 263.705 368.563 254.825" stroke="#1B3C87" stroke-width="3" stroke-linecap="round" stroke-linejoin="round"/>
<path d="M427.653 239.079C365.819 239.641 353.483 345.454 350.62 392.141H467.679C482.45 346.342 493.371 248.632 437.366 239.813C434.154 239.303 430.906 239.057 427.653 239.079Z" fill="#46DBC9"/>
<path d="M19.9916 252.104C17.9222 252.104 15.873 252.51 13.9611 253.299C12.0492 254.088 10.312 255.245 8.84874 256.703C7.38546 258.161 6.22476 259.892 5.4329 261.798C4.64104 263.703 4.23353 265.745 4.23364 267.807C4.23364 267.807 15.5691 359.264 19.7019 392.601H104.906C104.898 387.223 104.732 273.783 103.86 252.104H19.9916Z" fill="#3C3744"/>
<path d="M125.43 248.35C68.7389 248.35 57.5361 346.881 59.1861 392.599H163.093C172.343 347.327 173.878 248.35 125.43 248.35Z" fill="#46DBC9"/>
<path d="M164.216 320.108C165.62 346.819 162.774 374.63 158.761 392.406" stroke="#1B3C87" stroke-width="3" stroke-linecap="round" stroke-linejoin="round"/>
<path d="M136.124 248.34C146.217 253.693 153.094 264.871 157.556 278.987" stroke="#1B3C87" stroke-width="3" stroke-linecap="round" stroke-linejoin="round"/>
<path d="M90.8745 257.842C95.356 253.433 100.352 249.926 105.911 247.573" stroke="#1B3C87" stroke-width="3" stroke-linecap="round" stroke-linejoin="round"/>
<path d="M164.904 343.16C168.713 341.162 198.859 318.956 201.661 316.009C204.463 313.062 209.121 300.985 211.159 299.199C213.197 297.412 214.553 296.432 215.766 297.764C216.979 299.097 214.849 305.779 212.209 309.286C217.185 304.14 228.892 295.974 233.029 294.543" stroke="#1B3C87" stroke-width="3" stroke-linecap="round" stroke-linejoin="round"/>
<path d="M183.89 356.12C173.271 365.237 163.662 373.55 161.972 375.058" stroke="#1B3C87" stroke-width="3" stroke-linecap="round" stroke-linejoin="round"/>
<path d="M233.197 320.924C228.554 323.282 219.39 326.721 215.153 329.735C213.944 330.595 209.406 334.375 203.449 339.416" stroke="#1B3C87" stroke-width="3" stroke-linecap="round" stroke-linejoin="round"/>
<path d="M218.768 310.243C220.213 309.05 224.693 305.861 229.157 302.982C233.302 300.302 237.435 297.898 239.109 297.604" stroke="#1B3C87" stroke-width="3" stroke-linecap="round" stroke-linejoin="round"/>
<path d="M222.367 314.412C223.812 313.22 228.292 310.029 232.756 307.15C236.902 304.475 241.034 302.067 242.709 301.774" stroke="#1B3C87" stroke-width="3" stroke-linecap="round" stroke-linejoin="round"/>
<path d="M224.101 320.05C225.385 318.975 229.362 316.098 233.325 313.501C237.007 311.088 240.675 308.919 242.162 308.652" stroke="#1B3C87" stroke-width="3" stroke-linecap="round" stroke-linejoin="round"/>
<path d="M452.265 223.444C451.137 226.651 446.058 250.376 445.682 254.119C440.911 255.829 421.283 252.989 418.815 249.247C421.229 242.19 423.795 228.19 423.58 222.309" fill="white"/>
<path d="M417.339 247.117C419.753 240.06 422.319 226.06 422.104 220.18" stroke="#1B3C87" stroke-width="3" stroke-linecap="round" stroke-linejoin="round"/>
<path d="M450.789 221.314C449.662 224.522 444.582 248.247 444.207 251.989C441.888 252.819 436.068 252.577 430.414 251.679" stroke="#1B3C87" stroke-width="3" stroke-linecap="round" stroke-linejoin="round"/>
<path d="M415.559 182.176C417.074 177.665 419.324 173.254 421.623 169.921" stroke="#1B3C87" stroke-width="3" stroke-linecap="round" stroke-linejoin="round"/>
<path d="M440.247 225.917C437.66 226.436 435.036 226.454 432.453 225.903C420.359 223.327 412.66 209.89 413.345 194.239" stroke="#1B3C87" stroke-width="3" stroke-linecap="round" stroke-linejoin="round"/>
<path d="M446.751 240.291C490.015 261.037 478.896 351.447 464.818 392.37" stroke="#1B3C87" stroke-width="3" stroke-linecap="round" stroke-linejoin="round"/>
<path d="M358.714 319.437C368.195 279.988 386.029 241.619 419.566 236.477" stroke="#1B3C87" stroke-width="3" stroke-linecap="round" stroke-linejoin="round"/>
<path d="M348.583 392.413C349.11 383.009 350.081 370.705 351.866 357.122" stroke="#1B3C87" stroke-width="3" stroke-linecap="round" stroke-linejoin="round"/>
<path d="M459.513 352.294C460.293 363.791 461.143 374.408 461.796 377.577C458.345 381.758 450.322 392.378 450.322 392.378" stroke="#1B3C87" stroke-width="3" stroke-linecap="round" stroke-linejoin="round"/>
<path d="M457.344 317.198C457.443 318.639 457.731 323.692 458.125 330.326" stroke="#1B3C87" stroke-width="3" stroke-linecap="round" stroke-linejoin="round"/>
<path d="M359.117 281.152C357.96 282.839 348.806 296.393 348.806 296.393C348.806 296.393 307.861 248.114 305.085 244.33C296.784 233.028 292.826 219.226 292.371 216.193C291.937 213.329 290.549 209.947 288.144 211.532C284.346 214.385 286.828 228.974 289.744 233.959" stroke="#1B3C87" stroke-width="3" stroke-linecap="round" stroke-linejoin="round"/>
<path d="M284.998 235.627C285.097 238.143 287.417 245.875 291.157 249.384" stroke="#1B3C87" stroke-width="3" stroke-linecap="round" stroke-linejoin="round"/>
<path d="M280.55 240.099C280.897 242.592 283.973 250.059 288.045 253.182" stroke="#1B3C87" stroke-width="3" stroke-linecap="round" stroke-linejoin="round"/>
<path d="M276.138 244.677C276.636 247.145 280.157 254.414 284.411 257.287" stroke="#1B3C87" stroke-width="3" stroke-linecap="round" stroke-linejoin="round"/>
<path d="M317.742 303.646C309.263 288.644 302.068 271.927 293.26 259.692" stroke="#1B3C87" stroke-width="3" stroke-linecap="round" stroke-linejoin="round"/>
<path d="M354.646 338.778C346.808 336.898 340.215 332.641 334.447 326.9" stroke="#1B3C87" stroke-width="3" stroke-linecap="round" stroke-linejoin="round"/>
<path d="M420.131 185.215C420.755 182.265 422.994 180.237 425.134 180.685C427.274 181.134 428.503 183.889 427.88 186.84" stroke="#1B3C87" stroke-width="3" stroke-linecap="round" stroke-linejoin="round"/>
<path d="M440.625 189.953C441.248 187.003 443.488 184.975 445.628 185.423C447.768 185.872 448.996 188.627 448.373 191.578" stroke="#1B3C87" stroke-width="3" stroke-linecap="round" stroke-linejoin="round"/>
<path d="M431.555 191.231C430.284 192.983 426.957 196.89 425.389 197.645" stroke="#1B3C87" stroke-width="3" stroke-linecap="round" stroke-linejoin="round"/>
<path d="M432.422 203.659C434.244 204.025 438.21 204.282 442.225 203.526C443.052 206.457 442.225 212.847 434.743 213.916" stroke="#1B3C87" stroke-width="3" stroke-linecap="round" stroke-linejoin="round"/>
<path d="M53.9468 249.656H101.631" stroke="#1B3C87" stroke-width="3" stroke-linecap="round" stroke-linejoin="round"/>
<path d="M17.745 392.382L2 265.36C2 263.297 2.40764 261.255 3.19965 259.35C3.99166 257.445 5.15253 255.714 6.61596 254.256C8.0794 252.797 9.81674 251.641 11.7288 250.852C13.6408 250.062 15.6901 249.656 17.7597 249.656H23.6968" stroke="#1B3C87" stroke-width="3" stroke-linecap="round" stroke-linejoin="round"/>
<path d="M508.616 253.285H475.633" stroke="#1B3C87" stroke-width="3" stroke-linecap="round" stroke-linejoin="round"/>
<path d="M505.253 392.407L523.964 284.948" stroke="#1B3C87" stroke-width="3" stroke-linecap="round" stroke-linejoin="round"/>
<path d="M192.625 169.168L192.609 179.447L213.941 157.731H272.746V122.642H264.314" stroke="#1B3C87" stroke-width="3" stroke-linecap="round" stroke-linejoin="round"/>
<path d="M245.775 122.642H192.641V151.838" stroke="#1B3C87" stroke-width="3" stroke-linecap="round" stroke-linejoin="round"/>
<path d="M201.945 133.271H260.093" stroke="#1B3C87" stroke-width="3" stroke-linecap="round" stroke-linejoin="round"/>
<path d="M201.945 146.965H222.244" stroke="#1B3C87" stroke-width="3" stroke-linecap="round" stroke-linejoin="round"/>
<path d="M362.21 75.7637H373.287V110.853L373.319 132.57L351.989 110.853H293.182V106.133" stroke="#1B3C87" stroke-width="3" stroke-linecap="round" stroke-linejoin="round"/>
<path d="M293.182 92.5716V75.7637H337.523" stroke="#1B3C87" stroke-width="3" stroke-linecap="round" stroke-linejoin="round"/>
<path d="M363.984 86.3923H305.839" stroke="#1B3C87" stroke-width="3" stroke-linecap="round" stroke-linejoin="round"/>
<path d="M326.506 100.086H306.206" stroke="#1B3C87" stroke-width="3" stroke-linecap="round" stroke-linejoin="round"/>
<path d="M44.4167 309.821L44.4766 309.974C42.4111 314.588 23.9006 366.807 24.7143 371.135C25.5323 375.49 29.8706 383.168 33.0613 384.944C34.5195 385.757 49.1255 388.873 66.5464 392.601H171.611C169.465 387.155 160.496 382.664 152.197 382.648C149.382 382.555 144.978 382.747 141.78 386.39C110.127 371.833 74.6713 363.513 64.3638 360.838L63.2361 357.929C66.6635 351.396 76.9962 332.493 78.4388 329.549C72.9476 326.768 44.7949 310.046 44.5503 309.897L44.5321 309.846C44.5321 309.852 44.5208 309.87 44.5182 309.876L44.4167 309.821Z" fill="white"/>
<path d="M28.5495 349.04C25.4265 358.845 23.1303 366.919 23.4313 368.51C24.2493 372.865 28.5851 380.54 31.7757 382.318C33.5402 383.3 54.209 387.685 76.2554 392.432" stroke="#1B3C87" stroke-width="3" stroke-linecap="round" stroke-linejoin="round"/>
<path d="M43.0921 307.199C42.2784 308.958 38.314 319.915 34.157 332.113" stroke="#1B3C87" stroke-width="3" stroke-linecap="round" stroke-linejoin="round"/>
<path d="M77.4102 326.748C75.2735 330.214 61.3928 356.343 61.0432 357.435C67.6066 359.346 106.594 367.883 140.754 383.594C143.954 379.95 148.356 379.759 151.171 379.852C160.752 379.87 171.067 384.809 171.067 392.386" stroke="#1B3C87" stroke-width="3" stroke-linecap="round" stroke-linejoin="round"/>
<path d="M92.8478 263C116.476 276.766 91.7132 329.138 85.3197 330.804C72.7559 331.668 43.8233 313.593 41.0387 306.276C38.2541 298.96 69.534 249.414 92.8478 263Z" fill="#46DBC9"/>
<path d="M99.9657 293.362C96.4472 310.104 87.368 326.372 83.8495 327.289C71.2856 328.153 42.353 310.077 39.5684 302.76C38.5482 300.08 42.1023 291.725 48.1626 282.887" stroke="#1B3C87" stroke-width="3" stroke-linecap="round" stroke-linejoin="round"/>
<path d="M62.7676 266.311C71.8363 258.551 82.2228 254.148 91.3809 259.482C95.0243 261.606 97.5201 264.649 99.1076 268.284" stroke="#1B3C87" stroke-width="3" stroke-linecap="round" stroke-linejoin="round"/>
<path d="M106.762 259.1C110.202 249.781 109.67 218.453 109.329 215.354C108.918 211.614 106.092 184.641 112.878 178.943C119.665 173.245 130.095 166.859 136.253 167.297C142.41 167.736 160.735 186.11 160.735 208.358C160.735 230.605 140.436 241.233 135.674 241.379C135.024 246.319 135.074 259.542 135.074 264.332C133.121 266.198 111.752 265.571 106.762 259.1Z" fill="white"/>
<path d="M110.15 195.852C106.969 195.658 104.498 198.518 101.842 201.247C99.4625 183.691 107.764 152.82 119.675 150.708C121.722 150.788 121.98 153.492 121.382 155.872C128.854 149.081 142.888 145.308 148.845 145.258C156.566 145.258 159.295 151.325 159.295 153.407C159.295 158.68 155.825 166.559 154.549 168.599C156.591 167.517 158.227 167.122 159.805 167.122C163.777 167.122 164.75 173.259 164.75 175.088C164.75 181.471 157.967 187.968 154.6 187.968C153.022 187.968 148.661 185.519 147.338 183.692C147.804 185.049 148.321 185.429 148.34 187.515C148.355 189.236 145.845 190.181 144.35 190.181C140.392 190.181 132.547 182.488 125.369 182.488C122.981 182.488 119.967 185.898 119.967 187.82C119.967 189.743 120.976 198.818 120.369 199.134C118.516 200.589 117.656 196.261 110.3 195.791" fill="#EECB55"/>
<path d="M155.149 219.468C150.564 230.764 141.192 238.504 130.376 238.504C124.898 238.504 119.792 236.515 115.49 233.092" stroke="#1B3C87" stroke-width="3" stroke-linecap="round" stroke-linejoin="round"/>
<path d="M154.105 185.748C156.838 191.129 158.143 196.905 158.143 203.754C158.144 205.352 158.057 206.95 157.883 208.539" stroke="#1B3C87" stroke-width="3" stroke-linecap="round" stroke-linejoin="round"/>
<path d="M132.514 261.496C132.215 255.986 132.384 241.621 133.131 238.493" stroke="#1B3C87" stroke-width="3" stroke-linecap="round" stroke-linejoin="round"/>
<path d="M106.72 241.649C106.286 247.279 105.566 252.55 104.412 256.185C106.611 258.754 112.505 260.718 118.639 261.638" stroke="#1B3C87" stroke-width="3" stroke-linecap="round" stroke-linejoin="round"/>
<path d="M106.704 212.892C107.042 214.5 107.379 221.956 107.225 230.543" stroke="#1B3C87" stroke-width="3" stroke-linecap="round" stroke-linejoin="round"/>
<path d="M126.441 196.934C126.441 195.272 127.159 193.923 128.045 193.923C128.93 193.923 129.647 195.272 129.647 196.934C129.647 198.596 128.929 199.945 128.045 199.945C127.16 199.945 126.441 198.597 126.441 196.934Z" fill="#1B3C87"/>
<path d="M149.244 198.138C149.244 196.476 149.962 195.128 150.847 195.128C151.731 195.128 152.45 196.476 152.45 198.138C152.45 199.8 151.732 201.149 150.847 201.149C149.961 201.149 149.244 199.801 149.244 198.138Z" fill="#1B3C87"/>
<path d="M142.82 204.887C143.195 207.54 145.37 211.986 147.77 213.705" stroke="#1B3C87" stroke-width="3" stroke-linecap="round" stroke-linejoin="round"/>
<path d="M141.508 220.132C139.86 219.908 134.608 217.106 133.558 215.088C131.608 216.022 130.633 222.635 134.608 223.646" stroke="#1B3C87" stroke-width="3" stroke-linecap="round" stroke-linejoin="round"/>
<path d="M154.142 185.738C153.731 185.893 153.296 185.978 152.856 185.989C149.679 185.989 144.345 180.673 144.345 180.673C145.544 183.6 146.263 184.435 146.263 185.63C146.263 186.825 144.764 188.137 142.547 188.198C137.148 188.351 131.183 180.529 123.605 180.529C121.63 180.529 117.77 183.223 117.77 186.48C117.77 188.677 118.464 194.994 118.464 196.507C118.464 197.112 118.117 197.517 117.47 197.787" stroke="#1B3C87" stroke-width="3" stroke-linecap="round" stroke-linejoin="round"/>
<path d="M142.936 143.833C144.14 143.67 145.353 143.586 146.567 143.582C152.441 143.582 157.176 147.523 157.176 151.943C157.176 156.363 153.879 165.082 151.661 167.174C154.599 165.86 155.437 165.382 157.473 165.382C161.769 165.382 162.568 169.921 162.568 173.325C162.568 179.301 157.524 184.551 154.145 185.736" stroke="#1B3C87" stroke-width="3" stroke-linecap="round" stroke-linejoin="round"/>
<path d="M106.254 161.137C110.119 153.06 114.632 148.776 116.726 148.776C120.77 148.776 119.459 153.023 119.295 154.384C120.77 152.877 126.565 148.992 133.561 146.316" stroke="#1B3C87" stroke-width="3" stroke-linecap="round" stroke-linejoin="round"/>
<path d="M99.6785 190.011C99.9587 181.87 101.314 174.834 103.168 168.994" stroke="#1B3C87" stroke-width="3" stroke-linecap="round" stroke-linejoin="round"/>
<path d="M111.992 213.846C110.238 214.128 108.44 213.923 106.796 213.252C105.152 212.582 103.725 211.473 102.673 210.046C101.62 208.62 100.983 206.932 100.832 205.168C100.68 203.404 101.019 201.633 101.813 200.049C102.606 198.465 103.823 197.13 105.328 196.191C106.834 195.251 108.571 194.744 110.347 194.724C112.123 194.705 113.871 195.174 115.397 196.08C116.923 196.986 118.169 198.295 118.997 199.861" fill="white"/>
<path d="M110.88 212.924C109.126 213.206 107.328 213 105.684 212.33C104.04 211.659 102.613 210.55 101.561 209.123C100.508 207.697 99.8713 206.009 99.7196 204.245C99.5679 202.482 99.9074 200.71 100.701 199.126C101.494 197.542 102.711 196.207 104.216 195.268C105.722 194.328 107.459 193.821 109.235 193.801C111.011 193.782 112.759 194.251 114.285 195.157C115.811 196.064 117.057 197.372 117.885 198.938" stroke="#1B3C87" stroke-width="3" stroke-linecap="round" stroke-linejoin="round"/>
<path d="M496.817 313.773C489.747 317.39 476.17 319.501 458.994 320.099C459.471 330.148 461.779 361.833 463.006 379.221C460.333 383.107 456.427 388.182 453.317 392.14H482.571C487.152 384.792 493.481 374.255 494.42 371.744C495.862 367.884 496.269 330.523 496.817 313.773Z" fill="white"/>
<path d="M495.392 310.548C495.262 315.146 493.963 367.341 492.858 370.579C491.754 373.817 482.795 388.614 479.933 392.449" stroke="#1B3C87" stroke-width="3" stroke-linecap="round" stroke-linejoin="round"/>
<path d="M465.707 252.536C489.451 247.37 505.75 304.872 502.276 309.707C498.801 314.541 456.009 321.556 452.188 318.092C448.368 314.627 445.824 256.862 465.707 252.536Z" fill="#46DBC9"/>
<path d="M471.641 315.714C461.327 317.23 451.797 317.78 450.085 316.228C447.844 314.195 446.042 293.471 448.95 275.815" stroke="#1B3C87" stroke-width="3" stroke-linecap="round" stroke-linejoin="round"/>
<path d="M467.499 250.373C489.099 251.747 503.453 303.276 500.173 307.843C499.219 309.173 495.284 310.669 490.007 312.066" stroke="#1B3C87" stroke-width="3" stroke-linecap="round" stroke-linejoin="round"/>
<path d="M470.758 200.788C476.856 194.766 480.156 181.676 480.156 174.519C480.156 159.803 471.47 153.764 469.845 153.764C468.221 153.764 466.513 157.169 466.774 159.55C465.307 157.522 452.435 144.976 429.233 144.976C422.806 144.976 418.19 148.078 418.19 153.18C418.19 155.5 419.268 159.121 421.139 160.366C419.237 160.507 416.542 161.862 416.542 165.628C416.542 169.929 422.334 171.964 424.633 171.964C426.932 171.964 430.339 169.588 431.986 167.353C432.497 169.814 430.952 173.824 436.33 173.86C438.601 173.875 448.168 169.05 449.956 167.438C448.14 170.55 445.642 171.979 445.642 175.501C445.642 178.795 447.259 181.102 449.758 181.102C452.256 181.102 459.467 177.707 460.802 176.175C461.086 178.41 458.585 194.007 459.338 198.259C461.848 198.447 464.929 195.261 464.969 197.873" fill="#E49D75"/>
<path d="M443.1 168.627C445.453 167.423 447.547 166.194 448.292 165.523C446.475 168.635 443.977 170.063 443.977 173.586C443.977 176.88 445.595 179.187 448.093 179.187C450.591 179.187 457.802 175.792 459.136 174.265C459.421 176.499 456.92 192.096 457.673 196.348C460.183 196.537 463.265 193.351 463.304 195.963" stroke="#1B3C87" stroke-width="3" stroke-linecap="round" stroke-linejoin="round"/>
<path d="M434.429 143.438C432.151 143.185 429.86 143.06 427.567 143.061C421.14 143.061 416.523 146.164 416.523 151.266C416.523 153.585 417.603 157.206 419.473 158.451C417.57 158.592 414.875 159.948 414.875 163.713C414.875 168.015 420.666 170.05 422.966 170.05C425.266 170.05 428.673 167.673 430.319 165.438C430.788 167.691 429.532 171.242 433.442 171.854" stroke="#1B3C87" stroke-width="3" stroke-linecap="round" stroke-linejoin="round"/>
<path d="M477.659 180.066C478.209 177.288 478.491 174.693 478.491 172.603C478.491 157.889 469.805 151.848 468.18 151.848C466.555 151.848 464.849 155.251 465.11 157.635C464.124 156.273 457.99 150.162 447.035 146.299" stroke="#1B3C87" stroke-width="3" stroke-linecap="round" stroke-linejoin="round"/>
<path d="M469.093 198.873C471.198 196.793 472.97 193.871 474.389 190.642" stroke="#1B3C87" stroke-width="3" stroke-linecap="round" stroke-linejoin="round"/>
<path d="M461.743 196.416C462.921 195.985 464.202 195.913 465.421 196.21C466.641 196.508 467.744 197.16 468.589 198.085C469.434 199.01 469.983 200.165 470.167 201.403C470.35 202.64 470.159 203.904 469.618 205.033C469.077 206.162 468.21 207.104 467.129 207.74C466.048 208.375 464.801 208.676 463.548 208.602C462.295 208.528 461.092 208.083 460.094 207.325C459.095 206.567 458.346 205.529 457.943 204.345" stroke="#1B3C87" stroke-width="3" stroke-linecap="round" stroke-linejoin="round"/>
<path d="M7.63867 392.427H530.814" stroke="#1B3C87" stroke-width="3" stroke-linecap="round" stroke-linejoin="round"/>
</svg>
