<svg width="494" height="572" viewBox="0 0 494 572" fill="none" xmlns="http://www.w3.org/2000/svg">
<path d="M149.236 174.299C97.3262 215.273 33.0729 243.195 10.2281 290.163C-12.5008 337.131 6.29468 402.923 46.0749 444.434C85.855 485.837 146.504 502.942 202.805 516.113C259.088 529.384 310.882 538.692 345.509 519.002C380.154 499.211 397.638 450.344 423.429 406.242C449.219 362.278 483.425 323.011 491.183 274.981C498.94 226.837 480.254 169.708 440.693 126.698C401.023 83.5812 340.374 54.4584 290.324 66.8944C240.378 79.3005 201.036 133.331 149.236 174.299Z" fill="#46DBC9" fill-opacity="0.25"/>
<path d="M50.9292 166.203L14.4239 248.168L163.281 272.975L50.9292 166.203Z" stroke="#B6C6FC" stroke-width="3" stroke-linecap="round" stroke-linejoin="round"/>
<path d="M181.034 275.793C181.034 214.389 182.253 152.609 265.259 152.609C341.033 152.609 347.466 237.924 347.851 268.557C348.235 299.644 358.218 317.68 370.641 331.59V478.936C329.58 515.3 274.206 550.579 247.488 550.579C223.198 550.579 178.131 533.904 141.479 513.384V366.307C162.403 342.194 181.034 314.737 181.034 275.793Z" fill="#FB5D64"/>
<path d="M425.271 403.752C422.087 337.381 353.15 347.226 352.089 264.395C351.918 251.022 350.601 227.231 342.862 204.663" stroke="#1B3C87" stroke-width="3" stroke-linecap="round" stroke-linejoin="round"/>
<path d="M95.0029 470.703C120.47 503.581 212.807 546.435 251.733 546.435C282.762 546.435 352.437 498.828 393.467 457.234" stroke="#1B3C87" stroke-width="3" stroke-linecap="round" stroke-linejoin="round"/>
<path d="M151.395 355.454C127.166 384.941 97.6007 408.654 90.1545 440.273" stroke="#1B3C87" stroke-width="3" stroke-linecap="round" stroke-linejoin="round"/>
<path d="M319.109 166.197C307.29 155.451 291.263 148.448 269.528 148.448C186.51 148.448 185.303 210.228 185.303 271.632C185.303 297.901 176.801 318.987 164.836 337.304" stroke="#1B3C87" stroke-width="3" stroke-linecap="round" stroke-linejoin="round"/>
<path d="M370.641 520.954C370.616 530.264 366.828 539.186 360.104 545.77C353.38 552.354 344.267 556.064 334.757 556.089H177.362C167.852 556.064 158.739 552.354 152.015 545.77C145.291 539.186 141.503 530.264 141.479 520.954V446.84C168.312 397.741 211.532 365.872 260.283 365.872C304.192 365.872 343.637 391.747 370.665 432.78L370.641 520.954Z" fill="#46DBC9"/>
<path fill-rule="evenodd" clip-rule="evenodd" d="M494 471.891C494 464.285 491.696 456.851 487.38 450.527C483.064 444.203 476.929 439.274 469.752 436.364C462.574 433.453 454.676 432.692 447.057 434.175C439.437 435.659 432.438 439.322 426.945 444.7C421.451 450.077 417.71 456.929 416.195 464.389C414.679 471.848 415.457 479.58 418.43 486.607C421.403 493.633 426.437 499.639 432.897 503.864C439.357 508.09 446.951 510.345 454.72 510.345C465.137 510.343 475.127 506.292 482.493 499.08C489.859 491.869 493.998 482.089 494 471.891Z" fill="#EAEFFF"/>
<path d="M394.38 2L466.157 85.5354L391.086 147.357L319.308 63.8213L394.38 2Z" stroke="#B6C6FC" stroke-width="3" stroke-linecap="round" stroke-linejoin="round"/>
<path d="M150.48 434.04C147.285 439.214 144.284 444.613 141.479 450.237" stroke="#1B3C87" stroke-width="3" stroke-linecap="round" stroke-linejoin="round"/>
<path d="M316.706 375.382C300.325 366.928 282.554 362.29 263.942 362.29C230.181 362.29 199.079 377.567 174.228 403.263" stroke="#1B3C87" stroke-width="3" stroke-linecap="round" stroke-linejoin="round"/>
<path d="M370.641 423.819C362.378 412.034 352.596 401.343 341.539 392.009" stroke="#1B3C87" stroke-width="3" stroke-linecap="round" stroke-linejoin="round"/>
<path d="M128.703 531.916C128.737 542.006 132.846 551.674 140.134 558.809C147.423 565.944 157.298 569.967 167.605 570H344.46C354.773 569.976 364.658 565.957 371.954 558.821C379.25 551.685 383.365 542.012 383.399 531.916V245.757" stroke="#1B3C87" stroke-width="3" stroke-linecap="round" stroke-linejoin="round"/>
<path d="M383.399 176.687V96.2738C383.365 86.1834 379.255 76.5158 371.967 69.3808C364.679 62.2458 354.804 58.2228 344.497 58.1897H167.641C157.328 58.2133 147.443 62.2322 140.147 69.3682C132.851 76.5042 128.737 86.1773 128.703 96.2738V445.574" stroke="#1B3C87" stroke-width="3" stroke-linecap="round" stroke-linejoin="round"/>
<path d="M358.322 547.397C362.185 544.106 365.284 540.044 367.409 535.483C369.534 530.922 370.636 525.968 370.641 520.954V107.217C370.616 97.9073 366.828 88.9853 360.104 82.4015C353.38 75.8177 344.267 72.1077 334.757 72.0825H221.546" stroke="#1B3C87" stroke-width="3" stroke-linecap="round" stroke-linejoin="round"/>
<path d="M166.336 73.7898C159.126 76.0921 152.841 80.5633 148.378 86.5664C143.915 92.5694 141.501 99.7983 141.479 107.223V520.96C141.503 530.27 145.291 539.192 152.015 545.776C158.739 552.36 167.852 556.07 177.362 556.095H285.067" stroke="#1B3C87" stroke-width="3" stroke-linecap="round" stroke-linejoin="round"/>
<path d="M190.255 72.0825C189.693 73.5714 189.406 75.1462 189.407 76.7333V77.4677C189.418 81.0523 190.878 84.4869 193.467 87.0216C196.056 89.5563 199.564 90.9852 203.226 90.9962H298.935" stroke="#1B3C87" stroke-width="3" stroke-linecap="round" stroke-linejoin="round"/>
<path d="M310.321 541.014H201.805" stroke="#1B3C87" stroke-width="3" stroke-linecap="round" stroke-linejoin="round"/>
<path d="M304.765 316.647C302.326 330.379 300.947 368.66 303.003 388.6C295.184 395.048 260.832 400.887 237.993 392.224C241.079 381.149 242.725 354.767 240.048 338.653C254.66 333.417 304.765 316.647 304.765 316.647Z" fill="white"/>
<path d="M305.064 357.674C304.997 368.063 305.283 378.128 306.052 385.615C301.35 389.496 287.019 393.155 271.382 393.567" stroke="#1B3C87" stroke-width="3" stroke-linecap="round" stroke-linejoin="round"/>
<path d="M241.042 389.227C244.128 378.152 245.775 351.77 243.098 335.656C257.734 330.42 307.814 313.65 307.814 313.65C306.875 318.957 306.088 327.925 305.601 338.086" stroke="#1B3C87" stroke-width="3" stroke-linecap="round" stroke-linejoin="round"/>
<path d="M255.672 348.289C217.782 348.289 187.065 308.195 187.065 258.736C187.065 209.277 217.782 169.182 255.672 169.182C293.563 169.182 324.28 209.277 324.28 258.736C324.28 308.195 293.563 348.289 255.672 348.289Z" fill="white"/>
<path d="M202.421 303.387C214.66 327.907 235.853 344.11 259.941 344.11C265.407 344.111 270.839 343.275 276.041 341.633" stroke="#1B3C87" stroke-width="3" stroke-linecap="round" stroke-linejoin="round"/>
<path d="M322.969 289.996C326.706 278.54 328.589 266.582 328.549 254.556C328.549 205.099 297.837 165.003 259.941 165.003C222.046 165.003 191.334 205.099 191.334 254.556C191.316 264.081 192.488 273.573 194.822 282.819" stroke="#1B3C87" stroke-width="3" stroke-linecap="round" stroke-linejoin="round"/>
<path d="M219.307 267.799C217.162 267.799 215.423 263.979 215.423 259.267C215.423 254.555 217.162 250.736 219.307 250.736C221.453 250.736 223.192 254.555 223.192 259.267C223.192 263.979 221.453 267.799 219.307 267.799Z" fill="#1B3C87"/>
<path d="M263.136 267.732C260.991 267.732 259.252 263.912 259.252 259.2C259.252 254.489 260.991 250.669 263.136 250.669C265.282 250.669 267.021 254.489 267.021 259.2C267.021 263.912 265.282 267.732 263.136 267.732Z" fill="#1B3C87"/>
<path d="M240.914 272.975C239.298 279.351 236.31 286.42 231.157 290.886" stroke="#1B3C87" stroke-width="3" stroke-linecap="round" stroke-linejoin="round"/>
<path d="M242.549 261.219C242.54 262.524 242.463 263.827 242.317 265.124" stroke="#1B3C87" stroke-width="3" stroke-linecap="round" stroke-linejoin="round"/>
<path d="M240.719 188.18C240.668 188.496 240.584 188.806 240.469 189.105C237.078 198.956 201.787 261.345 185.437 272.497C184.857 262.742 183.888 222.622 190.267 211.267C196.646 199.911 223.131 170.012 231.443 170.012C239.756 170.012 240.695 188.395 240.695 188.395" fill="#FB5D64"/>
<path d="M204.104 252.568C201.092 256.687 197.823 260.619 194.316 264.342" stroke="#1B3C87" stroke-width="3" stroke-linecap="round" stroke-linejoin="round"/>
<path d="M244.378 184.597C244.327 184.913 244.243 185.223 244.128 185.523C241.988 191.732 227.168 218.825 212.416 240.795" stroke="#1B3C87" stroke-width="3" stroke-linecap="round" stroke-linejoin="round"/>
<path d="M224.546 169.188C224.546 175.159 280.188 278.408 308.57 292.844C320.255 300.468 342.758 303.19 342.758 297.202C342.758 291.214 331.909 188.544 308.814 176.812C285.719 165.081 251.812 151.481 224.546 169.188Z" fill="#FB5D64"/>
<path d="M253.27 215.446C271.65 246.383 295.843 281.835 311.62 289.859C316.761 293.214 324.012 295.62 330.525 296.754" stroke="#1B3C87" stroke-width="3" stroke-linecap="round" stroke-linejoin="round"/>
<path d="M227.595 166.203C227.595 167.755 231.328 175.821 237.353 187.182" stroke="#1B3C87" stroke-width="3" stroke-linecap="round" stroke-linejoin="round"/>
<path d="M316.541 306.372C306.817 306.372 298.935 298.655 298.935 289.136C298.935 279.617 306.817 271.9 316.541 271.9C326.265 271.9 334.147 279.617 334.147 289.136C334.147 298.655 326.265 306.372 316.541 306.372Z" fill="white"/>
<path d="M326.713 270.384C323.988 269.206 321.003 268.724 318.036 268.982C315.07 269.24 312.218 270.23 309.747 271.858" stroke="#1B3C87" stroke-width="3" stroke-linecap="round" stroke-linejoin="round"/>
<path d="M267.888 308.954C266.599 312.017 262.173 315.392 257.056 315.911" stroke="#1B3C87" stroke-width="4" stroke-linecap="round" stroke-linejoin="round"/>
<path d="M314.602 302.689C317.61 303.551 320.799 303.612 323.84 302.865C326.88 302.119 329.662 300.592 331.899 298.442C334.136 296.292 335.747 293.597 336.566 290.635C337.384 287.673 337.381 284.55 336.556 281.59" stroke="#1B3C87" stroke-width="3" stroke-linecap="round" stroke-linejoin="round"/>
</svg>
